<svg width="410" height="292" viewBox="0 0 410 292" fill="none" xmlns="http://www.w3.org/2000/svg">
<g clip-path="url(#clip0)">
<path opacity="0.1" d="M368.171 247.996C365.115 249.571 361.912 250.931 358.752 252.287C347.079 257.213 335.23 262.182 322.689 263.873C299.137 267.005 274.833 258.423 251.693 263.778C232.309 268.25 216.278 281.951 197.341 288.052C188.536 290.889 179.374 292 170.131 292H168.937C167.792 291.986 166.656 291.957 165.528 291.914C156.156 291.562 146.746 290.176 137.558 288.404C108.549 282.826 79.0248 272.601 56.8462 253.776C121.424 241.985 254.449 223.885 368.171 247.996Z" fill="#252223"/>
<path opacity="0.3" d="M390.681 106.845V79.3828H374.367V106.845H355.047V64.3644H340.88V32.6113H329.288V0H305.246V32.6113H293.654V64.3644H279.916V26.1749H272.188V6.86554H267.466V26.1749H239.99V148.038H218.953V135.165H206.073V148.038H185.037V106.845H147.257V79.3828H130.942V106.845H130.084V159.624H112.911V128.729H92.3037V159.624H75.1309V64.3644H61.822V32.6113H12.8796V64.3644H0V232.141H75.1309H130.084H185.037H239.99H279.916H355.047H410V106.845H390.681Z" fill="white"/>
<path opacity="0.4" d="M26.1886 74.2336H8.15723V84.532H26.1886V74.2336Z" fill="white"/>
<path opacity="0.4" d="M48.513 84.532H66.5444V74.2337H48.513V84.532Z" fill="white"/>
<path opacity="0.4" d="M26.1886 94.4012H8.15723V104.699H26.1886V94.4012Z" fill="white"/>
<path opacity="0.4" d="M48.513 104.699H66.5444V94.4012H48.513V104.699Z" fill="white"/>
<path opacity="0.4" d="M26.1886 114.569H8.15723V124.867H26.1886V114.569Z" fill="white"/>
<path opacity="0.4" d="M48.513 124.867H66.5444V114.569H48.513V124.867Z" fill="white"/>
<path opacity="0.4" d="M26.1886 134.736H8.15723V145.035H26.1886V134.736Z" fill="white"/>
<path opacity="0.4" d="M48.513 145.035H66.5444V134.736H48.513V145.035Z" fill="white"/>
<path opacity="0.4" d="M26.1886 154.904H8.15723V165.202H26.1886V154.904Z" fill="white"/>
<path opacity="0.4" d="M48.513 165.202H66.5444V154.904H48.513V165.202Z" fill="white"/>
<path opacity="0.4" d="M26.1886 175.071H8.15723V185.37H26.1886V175.071Z" fill="white"/>
<path opacity="0.4" d="M48.513 185.37H66.5444V175.071H48.513V185.37Z" fill="white"/>
<path opacity="0.4" d="M26.1886 195.239H8.15723V205.537H26.1886V195.239Z" fill="white"/>
<path opacity="0.4" d="M48.513 205.537H66.5444V195.239H48.513V205.537Z" fill="white"/>
<path opacity="0.4" d="M123.644 169.922H81.5708V175.071H123.644V169.922Z" fill="white"/>
<path opacity="0.4" d="M123.644 177.646H81.5708V182.795H123.644V177.646Z" fill="white"/>
<path opacity="0.4" d="M123.644 185.37H81.5708V190.519H123.644V185.37Z" fill="white"/>
<path opacity="0.4" d="M233.55 172.497H191.477V177.646H233.55V172.497Z" fill="white"/>
<path opacity="0.4" d="M233.55 180.22H191.477V185.37H233.55V180.22Z" fill="white"/>
<path opacity="0.4" d="M233.55 187.944H191.477V193.093H233.55V187.944Z" fill="white"/>
<path opacity="0.4" d="M123.644 193.093H81.5708V198.242H123.644V193.093Z" fill="white"/>
<path opacity="0.4" d="M123.644 200.817H81.5708V205.966H123.644V200.817Z" fill="white"/>
<path opacity="0.4" d="M123.644 208.541H81.5708V213.69H123.644V208.541Z" fill="white"/>
<path opacity="0.4" d="M150.691 116.714H139.1V131.733H150.691V116.714Z" fill="white"/>
<path opacity="0.4" d="M164.429 131.733H176.021V116.714H164.429V131.733Z" fill="white"/>
<path opacity="0.4" d="M150.691 140.744H139.1V155.762H150.691V140.744Z" fill="white"/>
<path opacity="0.4" d="M164.429 155.762H176.021V140.744H164.429V155.762Z" fill="white"/>
<path opacity="0.4" d="M150.691 164.773H139.1V179.791H150.691V164.773Z" fill="white"/>
<path opacity="0.4" d="M164.429 179.791H176.021V164.773H164.429V179.791Z" fill="white"/>
<path opacity="0.4" d="M150.691 188.802H139.1V203.821H150.691V188.802Z" fill="white"/>
<path opacity="0.4" d="M164.429 203.821H176.021V188.802H164.429V203.821Z" fill="white"/>
<path opacity="0.4" d="M255.445 36.0441H239.99V55.7825H255.445V36.0441Z" fill="white"/>
<path opacity="0.4" d="M255.445 64.3644H239.99V84.1029H255.445V64.3644Z" fill="white"/>
<path opacity="0.4" d="M255.445 92.6848H239.99V112.423H255.445V92.6848Z" fill="white"/>
<path opacity="0.4" d="M255.445 121.005H239.99V140.744H255.445V121.005Z" fill="white"/>
<path opacity="0.4" d="M255.445 149.326H239.99V169.064H255.445V149.326Z" fill="white"/>
<path opacity="0.4" d="M255.445 177.646H239.99V197.384H255.445V177.646Z" fill="white"/>
<path opacity="0.4" d="M346.246 76.3792H288.717V93.1139H346.246V76.3792Z" fill="white"/>
<path opacity="0.4" d="M346.461 112.423H288.932V129.158H346.461V112.423Z" fill="white"/>
<path opacity="0.4" d="M346.675 148.467H289.146V165.202H346.675V148.467Z" fill="white"/>
<path opacity="0.4" d="M346.89 184.511H289.361V201.246H346.89V184.511Z" fill="white"/>
<path opacity="0.4" d="M20.6071 41.6223H12.8794V57.928H20.6071V41.6223Z" fill="white"/>
<path opacity="0.4" d="M410 116.714H390.681V141.602H410V116.714Z" fill="white"/>
<path opacity="0.4" d="M410 152.758H390.681V177.646H410V152.758Z" fill="white"/>
<path opacity="0.4" d="M410 188.802H390.681V213.69H410V188.802Z" fill="white"/>
<path d="M21.3241 205.773C21.3241 205.773 -12.4762 226.155 49.831 257.535C49.831 257.535 63.5692 232.064 48.3799 211.296C45.4339 207.247 41.1048 204.42 36.2126 203.348C31.3204 202.277 26.2048 203.036 21.835 205.481L21.3241 205.773Z" fill="white"/>
<path d="M21.7148 205.344C21.7148 205.344 50.6381 227.464 49.831 257.535" stroke="#535461" stroke-miterlimit="10"/>
<path d="M51.4027 258.694C51.4027 258.694 40.8114 222.752 53.3904 196.299C58.6711 185.198 60.4227 172.733 57.9841 160.684C56.8181 154.963 55.1295 149.361 52.9396 143.949" stroke="#535461" stroke-width="2" stroke-miterlimit="10"/>
<path d="M60.7489 127.253C60.7489 131.66 52.7679 144.417 52.7679 144.417C52.7679 144.417 44.7868 131.642 44.7868 127.253C44.7621 126.19 44.9503 125.133 45.3402 124.144C45.7301 123.155 46.3138 122.253 47.0572 121.493C47.8005 120.733 48.6885 120.128 49.6688 119.716C50.6491 119.303 51.7021 119.091 52.7657 119.091C53.8294 119.091 54.8823 119.303 55.8626 119.716C56.843 120.128 57.7309 120.733 58.4742 121.493C59.2176 122.253 59.8014 123.155 60.1913 124.144C60.5812 125.133 60.7693 126.19 60.7446 127.253H60.7489Z" fill="white"/>
<path d="M73.9544 151.651C71.5588 155.35 57.915 161.735 57.915 161.735C57.915 161.735 58.164 146.678 60.5596 142.979C61.7347 141.261 63.5349 140.071 65.5761 139.661C67.6173 139.251 69.7379 139.654 71.4856 140.785C73.2332 141.916 74.4696 143.685 74.9308 145.714C75.392 147.743 75.0417 149.872 73.9544 151.647V151.651Z" fill="white"/>
<path d="M73.3753 193.347C69.4384 195.329 54.438 193.96 54.438 193.96C54.438 193.96 62.2559 181.087 66.1927 179.105C68.0765 178.202 70.2393 178.073 72.217 178.746C74.1946 179.419 75.8293 180.841 76.7701 182.705C77.711 184.569 77.8829 186.728 77.2489 188.718C76.615 190.707 75.2258 192.369 73.3796 193.347H73.3753Z" fill="white"/>
<path d="M65.8318 224.795C62.29 227.412 47.2681 228.597 47.2681 228.597C47.2681 228.597 52.7977 214.591 56.3396 211.969C57.1815 211.336 58.1404 210.876 59.1611 210.616C60.1817 210.355 61.2439 210.299 62.2864 210.45C63.3288 210.602 64.331 210.959 65.2349 211.499C66.1389 212.04 66.9269 212.754 67.5533 213.6C68.1798 214.447 68.6324 215.409 68.8851 216.431C69.1377 217.453 69.1854 218.515 69.0254 219.556C68.8653 220.597 68.5007 221.595 67.9526 222.495C67.4045 223.394 66.6837 224.176 65.8318 224.795Z" fill="white"/>
<path d="M41.1586 162.589C44.3184 165.657 59.0484 168.837 59.0484 168.837C59.0484 168.837 55.4421 154.217 52.2823 151.145C51.5369 150.386 50.6473 149.783 49.6656 149.373C48.6839 148.963 47.63 148.753 46.5658 148.755C45.5017 148.758 44.4489 148.973 43.4693 149.389C42.4897 149.804 41.6031 150.411 40.8616 151.174C40.1201 151.937 39.5387 152.84 39.1517 153.831C38.7646 154.821 38.5797 155.879 38.6078 156.943C38.6358 158.006 38.8764 159.053 39.3152 160.022C39.754 160.99 40.3822 161.862 41.1629 162.585L41.1586 162.589Z" fill="white"/>
<path d="M32.8042 199.478C36.741 201.461 51.7415 200.092 51.7415 200.092C51.7415 200.092 43.9235 187.219 39.9867 185.237C38.103 184.334 35.9401 184.205 33.9625 184.878C31.9848 185.551 30.3501 186.972 29.4093 188.837C28.4685 190.701 28.2966 192.86 28.9305 194.849C29.5644 196.839 30.9537 198.501 32.7999 199.478H32.8042Z" fill="white"/>
<path d="M29.606 236.449C33.1479 239.067 48.1697 240.251 48.1697 240.251C48.1697 240.251 42.6401 226.241 39.0939 223.623C37.3911 222.385 35.2678 221.87 33.1866 222.19C31.1054 222.51 29.2349 223.638 27.9827 225.33C26.7304 227.022 26.1979 229.14 26.5012 231.223C26.8045 233.306 27.9189 235.184 29.6017 236.449H29.606Z" fill="white"/>
<path opacity="0.25" d="M60.7489 127.253C60.7489 131.66 52.7679 144.417 52.7679 144.417C52.7679 144.417 44.7868 131.642 44.7868 127.253C44.7621 126.19 44.9503 125.133 45.3402 124.144C45.7301 123.155 46.3138 122.253 47.0572 121.493C47.8005 120.733 48.6885 120.128 49.6688 119.716C50.6491 119.303 51.7021 119.091 52.7657 119.091C53.8294 119.091 54.8823 119.303 55.8626 119.716C56.843 120.128 57.7309 120.733 58.4742 121.493C59.2176 122.253 59.8014 123.155 60.1913 124.144C60.5812 125.133 60.7693 126.19 60.7446 127.253H60.7489Z" fill="black"/>
<path opacity="0.25" d="M73.9544 151.651C71.5588 155.35 57.915 161.735 57.915 161.735C57.915 161.735 58.164 146.678 60.5596 142.979C61.7347 141.261 63.5349 140.071 65.5761 139.661C67.6173 139.251 69.7379 139.654 71.4856 140.785C73.2332 141.916 74.4696 143.685 74.9308 145.714C75.392 147.743 75.0417 149.872 73.9544 151.647V151.651Z" fill="black"/>
<path opacity="0.25" d="M73.3753 193.347C69.4384 195.329 54.438 193.96 54.438 193.96C54.438 193.96 62.2559 181.087 66.1927 179.105C68.0765 178.202 70.2393 178.073 72.217 178.746C74.1946 179.419 75.8293 180.841 76.7701 182.705C77.711 184.569 77.8829 186.728 77.2489 188.718C76.615 190.707 75.2258 192.369 73.3796 193.347H73.3753Z" fill="black"/>
<path opacity="0.25" d="M65.8318 224.795C62.29 227.412 47.2681 228.597 47.2681 228.597C47.2681 228.597 52.7977 214.591 56.3396 211.969C57.1815 211.336 58.1404 210.876 59.1611 210.616C60.1817 210.355 61.2439 210.299 62.2864 210.45C63.3288 210.602 64.331 210.959 65.2349 211.499C66.1389 212.04 66.9269 212.754 67.5533 213.6C68.1798 214.447 68.6324 215.409 68.8851 216.431C69.1377 217.453 69.1854 218.515 69.0254 219.556C68.8653 220.597 68.5007 221.595 67.9526 222.495C67.4045 223.394 66.6837 224.176 65.8318 224.795Z" fill="black"/>
<path opacity="0.25" d="M41.1586 162.589C44.3184 165.657 59.0484 168.837 59.0484 168.837C59.0484 168.837 55.4421 154.217 52.2823 151.145C51.5369 150.386 50.6473 149.783 49.6656 149.373C48.6839 148.963 47.63 148.753 46.5658 148.755C45.5017 148.758 44.4489 148.973 43.4693 149.389C42.4897 149.804 41.6031 150.411 40.8616 151.174C40.1201 151.937 39.5387 152.84 39.1517 153.831C38.7646 154.821 38.5797 155.879 38.6078 156.943C38.6358 158.006 38.8764 159.053 39.3152 160.022C39.754 160.99 40.3822 161.862 41.1629 162.585L41.1586 162.589Z" fill="black"/>
<path opacity="0.25" d="M32.8042 199.478C36.741 201.461 51.7415 200.092 51.7415 200.092C51.7415 200.092 43.9235 187.219 39.9867 185.237C38.103 184.334 35.9401 184.205 33.9625 184.878C31.9848 185.551 30.3501 186.972 29.4093 188.837C28.4685 190.701 28.2966 192.86 28.9305 194.849C29.5644 196.839 30.9537 198.501 32.7999 199.478H32.8042Z" fill="black"/>
<path opacity="0.25" d="M29.606 236.449C33.1479 239.067 48.1697 240.251 48.1697 240.251C48.1697 240.251 42.6401 226.241 39.0939 223.623C37.3911 222.385 35.2678 221.87 33.1866 222.19C31.1054 222.51 29.2349 223.638 27.9827 225.33C26.7304 227.022 26.1979 229.14 26.5012 231.223C26.8045 233.306 27.9189 235.184 29.6017 236.449H29.606Z" fill="black"/>
<path d="M382 249.412C382 249.412 371.409 213.471 383.988 187.017C389.268 175.917 391.02 163.451 388.581 151.402C387.415 145.682 385.727 140.08 383.537 134.668" stroke="#535461" stroke-width="2" stroke-miterlimit="10"/>
<path d="M391.363 117.971C391.363 122.378 383.382 135.135 383.382 135.135C383.382 135.135 375.401 122.361 375.401 117.971C375.376 116.909 375.565 115.852 375.954 114.862C376.344 113.873 376.928 112.972 377.671 112.212C378.415 111.451 379.303 110.847 380.283 110.435C381.263 110.022 382.316 109.81 383.38 109.81C384.444 109.81 385.497 110.022 386.477 110.435C387.457 110.847 388.345 111.451 389.088 112.212C389.832 112.972 390.416 113.873 390.805 114.862C391.195 115.852 391.383 116.909 391.359 117.971H391.363Z" fill="white"/>
<path d="M404.552 142.37C402.156 146.069 388.513 152.454 388.513 152.454C388.513 152.454 388.762 137.397 391.157 133.698C391.713 132.79 392.446 132.003 393.311 131.382C394.176 130.762 395.157 130.321 396.196 130.085C397.234 129.849 398.309 129.823 399.358 130.009C400.406 130.195 401.407 130.589 402.301 131.167C403.195 131.746 403.964 132.497 404.563 133.377C405.162 134.258 405.579 135.249 405.788 136.292C405.998 137.336 405.997 138.411 405.784 139.454C405.572 140.497 405.153 141.487 404.552 142.366V142.37Z" fill="white"/>
<path d="M403.977 184.065C400.04 186.048 385.04 184.679 385.04 184.679C385.04 184.679 392.857 171.806 396.794 169.823C398.678 168.92 400.841 168.792 402.819 169.465C404.796 170.138 406.431 171.559 407.372 173.424C408.313 175.288 408.484 177.447 407.851 179.436C407.217 181.426 405.827 183.088 403.981 184.065H403.977Z" fill="white"/>
<path d="M396.433 215.514C392.892 218.131 377.87 219.315 377.87 219.315C377.87 219.315 383.399 205.31 386.941 202.688C388.644 201.45 390.767 200.935 392.849 201.254C394.93 201.574 396.8 202.703 398.052 204.395C399.305 206.087 399.837 208.205 399.534 210.287C399.231 212.37 398.116 214.249 396.433 215.514Z" fill="white"/>
<path d="M371.756 153.295C374.916 156.363 389.646 159.542 389.646 159.542C389.646 159.542 386.04 144.923 382.88 141.851C381.362 140.376 379.32 139.565 377.203 139.596C375.086 139.626 373.068 140.496 371.593 142.014C370.118 143.531 369.307 145.572 369.337 147.688C369.368 149.804 370.238 151.82 371.756 153.295Z" fill="white"/>
<path d="M363.419 190.197C367.356 192.179 382.356 190.81 382.356 190.81C382.356 190.81 374.538 177.938 370.601 175.955C368.719 175.066 366.564 174.947 364.595 175.623C362.627 176.3 361 177.718 360.063 179.576C359.126 181.434 358.953 183.585 359.579 185.569C360.206 187.553 361.584 189.214 363.419 190.197Z" fill="white"/>
<path d="M360.203 227.168C363.745 229.785 378.767 230.97 378.767 230.97C378.767 230.97 373.237 216.964 369.695 214.342C367.993 213.104 365.869 212.589 363.788 212.909C361.707 213.228 359.836 214.357 358.584 216.049C357.332 217.741 356.8 219.859 357.103 221.942C357.406 224.024 358.52 225.903 360.203 227.168Z" fill="white"/>
<path d="M334.225 245.915C334.225 245.915 328.532 226.606 335.294 212.385C338.167 206.441 339.033 199.726 337.763 193.248C337.136 190.178 336.229 187.171 335.054 184.267" stroke="#535461" stroke-width="2" stroke-miterlimit="10"/>
<path d="M339.257 175.277C339.257 177.646 334.964 184.507 334.964 184.507C334.964 184.507 330.67 177.642 330.67 175.277C330.67 174.139 331.123 173.048 331.928 172.243C332.733 171.438 333.825 170.986 334.964 170.986C336.102 170.986 337.194 171.438 337.999 172.243C338.805 173.048 339.257 174.139 339.257 175.277Z" fill="white"/>
<path d="M346.345 188.39C345.057 190.377 337.724 193.81 337.724 193.81C337.724 193.81 337.857 185.717 339.145 183.73C339.438 183.23 339.829 182.794 340.296 182.449C340.762 182.103 341.293 181.856 341.858 181.722C342.422 181.588 343.008 181.569 343.58 181.668C344.152 181.766 344.698 181.98 345.185 182.295C345.672 182.61 346.09 183.021 346.414 183.502C346.737 183.983 346.96 184.525 347.069 185.095C347.177 185.664 347.169 186.25 347.044 186.817C346.92 187.383 346.682 187.918 346.345 188.39Z" fill="white"/>
<path d="M346.036 210.794C343.919 211.858 335.856 211.124 335.856 211.124C335.856 211.124 340.059 204.207 342.172 203.143C343.18 202.687 344.326 202.639 345.37 203.007C346.413 203.376 347.274 204.133 347.773 205.12C348.271 206.108 348.369 207.25 348.045 208.308C347.721 209.366 347.002 210.258 346.036 210.798V210.794Z" fill="white"/>
<path d="M341.979 227.696C340.073 229.103 332.001 229.738 332.001 229.738C332.001 229.738 334.972 222.212 336.879 220.804C337.796 220.193 338.913 219.957 339.999 220.147C341.085 220.336 342.057 220.936 342.713 221.822C343.368 222.708 343.658 223.812 343.521 224.906C343.385 225.999 342.832 226.998 341.979 227.696Z" fill="white"/>
<path d="M328.721 194.269C330.439 195.917 338.334 197.629 338.334 197.629C338.334 197.629 336.398 189.772 334.698 188.124C334.3 187.701 333.822 187.362 333.29 187.129C332.758 186.896 332.184 186.773 331.603 186.767C331.023 186.762 330.447 186.875 329.911 187.098C329.375 187.322 328.89 187.652 328.485 188.068C328.081 188.485 327.765 188.979 327.556 189.521C327.348 190.063 327.253 190.641 327.275 191.221C327.297 191.801 327.436 192.371 327.685 192.896C327.934 193.42 328.286 193.889 328.721 194.273V194.269Z" fill="white"/>
<path d="M324.231 214.093C326.347 215.157 334.41 214.424 334.41 214.424C334.41 214.424 330.207 207.507 328.095 206.442C327.086 205.987 325.94 205.938 324.897 206.307C323.853 206.675 322.992 207.433 322.494 208.42C321.995 209.408 321.898 210.55 322.221 211.608C322.545 212.665 323.265 213.557 324.231 214.098V214.093Z" fill="white"/>
<path d="M322.513 233.965C324.419 235.372 332.491 236.007 332.491 236.007C332.491 236.007 329.503 228.477 327.614 227.069C326.696 226.446 325.573 226.201 324.479 226.387C323.386 226.573 322.407 227.175 321.747 228.067C321.088 228.958 320.799 230.07 320.942 231.17C321.085 232.269 321.648 233.271 322.513 233.965Z" fill="white"/>
<path opacity="0.1" d="M113.633 20.4593H110.679C110.958 20.472 111.237 20.428 111.499 20.3299C111.761 20.2318 112 20.0817 112.203 19.8886C112.405 19.6955 112.566 19.4634 112.676 19.2064C112.786 18.9494 112.842 18.6727 112.842 18.3932C112.842 18.1137 112.786 17.837 112.676 17.58C112.566 17.323 112.405 17.0909 112.203 16.8978C112 16.7047 111.761 16.5546 111.499 16.4565C111.237 16.3584 110.958 16.3144 110.679 16.3271H86.7529C86.2209 16.3513 85.7188 16.5796 85.3509 16.9644C84.9831 17.3492 84.7778 17.861 84.7778 18.3932C84.7778 18.9254 84.9831 19.4372 85.3509 19.822C85.7188 20.2068 86.2209 20.4351 86.7529 20.4593H89.7066C89.4272 20.4466 89.1481 20.4906 88.8862 20.5887C88.6243 20.6868 88.385 20.8369 88.1828 21.03C87.9806 21.2231 87.8197 21.4552 87.7097 21.7122C87.5997 21.9692 87.543 22.2459 87.543 22.5254C87.543 22.8049 87.5997 23.0816 87.7097 23.3386C87.8197 23.5956 87.9806 23.8277 88.1828 24.0208C88.385 24.2139 88.6243 24.364 88.8862 24.4621C89.1481 24.5602 89.4272 24.6042 89.7066 24.5915H85.5722C85.2929 24.5788 85.0138 24.6228 84.7519 24.7209C84.49 24.8189 84.2507 24.9691 84.0485 25.1622C83.8463 25.3553 83.6853 25.5874 83.5753 25.8444C83.4654 26.1014 83.4087 26.3781 83.4087 26.6576C83.4087 26.9371 83.4654 27.2138 83.5753 27.4708C83.6853 27.7278 83.8463 27.9599 84.0485 28.153C84.2507 28.3461 84.49 28.4962 84.7519 28.5943C85.0138 28.6924 85.2929 28.7364 85.5722 28.7237H109.498C109.778 28.7364 110.057 28.6924 110.319 28.5943C110.58 28.4962 110.82 28.3461 111.022 28.153C111.224 27.9599 111.385 27.7278 111.495 27.4708C111.605 27.2138 111.662 26.9371 111.662 26.6576C111.662 26.3781 111.605 26.1014 111.495 25.8444C111.385 25.5874 111.224 25.3553 111.022 25.1622C110.82 24.9691 110.58 24.8189 110.319 24.7209C110.057 24.6228 109.778 24.5788 109.498 24.5915H113.633C113.912 24.6042 114.191 24.5602 114.453 24.4621C114.715 24.364 114.954 24.2139 115.156 24.0208C115.359 23.8277 115.519 23.5956 115.629 23.3386C115.739 23.0816 115.796 22.8049 115.796 22.5254C115.796 22.2459 115.739 21.9692 115.629 21.7122C115.519 21.4552 115.359 21.2231 115.156 21.03C114.954 20.8369 114.715 20.6868 114.453 20.5887C114.191 20.4906 113.912 20.4466 113.633 20.4593Z" fill="#252223"/>
<path opacity="0.1" d="M219.245 72.3799H216.291C216.571 72.3927 216.85 72.3487 217.112 72.2506C217.373 72.1525 217.613 72.0024 217.815 71.8093C218.017 71.6161 218.178 71.3841 218.288 71.127C218.398 70.87 218.455 70.5934 218.455 70.3138C218.455 70.0343 218.398 69.7577 218.288 69.5007C218.178 69.2436 218.017 69.0116 217.815 68.8185C217.613 68.6253 217.373 68.4752 217.112 68.3771C216.85 68.279 216.571 68.235 216.291 68.2478H192.365C191.833 68.272 191.331 68.5003 190.963 68.8851C190.595 69.2699 190.39 69.7816 190.39 70.3138C190.39 70.8461 190.595 71.3578 190.963 71.7426C191.331 72.1275 191.833 72.3557 192.365 72.3799H195.319C195.04 72.3672 194.76 72.4112 194.499 72.5093C194.237 72.6074 193.997 72.7575 193.795 72.9507C193.593 73.1438 193.432 73.3758 193.322 73.6329C193.212 73.8899 193.155 74.1665 193.155 74.446C193.155 74.7256 193.212 75.0022 193.322 75.2592C193.432 75.5163 193.593 75.7483 193.795 75.9414C193.997 76.1346 194.237 76.2847 194.499 76.3828C194.76 76.4809 195.04 76.5249 195.319 76.5121H191.185C190.905 76.4994 190.626 76.5434 190.364 76.6415C190.102 76.7396 189.863 76.8897 189.661 77.0829C189.459 77.276 189.298 77.508 189.188 77.7651C189.078 78.0221 189.021 78.2987 189.021 78.5782C189.021 78.8578 189.078 79.1344 189.188 79.3914C189.298 79.6485 189.459 79.8805 189.661 80.0736C189.863 80.2667 190.102 80.4169 190.364 80.515C190.626 80.6131 190.905 80.6571 191.185 80.6443H215.111C215.39 80.6571 215.669 80.6131 215.931 80.515C216.193 80.4169 216.432 80.2667 216.634 80.0736C216.836 79.8805 216.997 79.6485 217.107 79.3914C217.217 79.1344 217.274 78.8578 217.274 78.5782C217.274 78.2987 217.217 78.0221 217.107 77.7651C216.997 77.508 216.836 77.276 216.634 77.0829C216.432 76.8897 216.193 76.7396 215.931 76.6415C215.669 76.5434 215.39 76.4994 215.111 76.5121H219.245C219.524 76.5249 219.803 76.4809 220.065 76.3828C220.327 76.2847 220.566 76.1346 220.769 75.9414C220.971 75.7483 221.132 75.5163 221.242 75.2592C221.352 75.0022 221.408 74.7256 221.408 74.446C221.408 74.1665 221.352 73.8899 221.242 73.6329C221.132 73.3758 220.971 73.1438 220.769 72.9507C220.566 72.7575 220.327 72.6074 220.065 72.5093C219.803 72.4112 219.524 72.3672 219.245 72.3799Z" fill="#252223"/>
<path opacity="0.1" d="M399.13 4.58277H396.176C396.455 4.5955 396.734 4.55149 396.996 4.4534C397.258 4.35531 397.497 4.20517 397.7 4.01206C397.902 3.81896 398.063 3.58688 398.173 3.32986C398.283 3.07284 398.339 2.7962 398.339 2.51667C398.339 2.23713 398.283 1.9605 398.173 1.70348C398.063 1.44645 397.902 1.21438 397.7 1.02127C397.497 0.828161 397.258 0.678029 396.996 0.579939C396.734 0.48185 396.455 0.437842 396.176 0.450571H372.25C371.718 0.474807 371.216 0.703069 370.848 1.08788C370.48 1.4727 370.275 1.98444 370.275 2.51667C370.275 3.04889 370.48 3.56064 370.848 3.94545C371.216 4.33026 371.718 4.55853 372.25 4.58277H375.204C374.924 4.57004 374.645 4.61405 374.383 4.71213C374.121 4.81022 373.882 4.96036 373.68 5.15347C373.478 5.34658 373.317 5.57865 373.207 5.83567C373.097 6.0927 373.04 6.36933 373.04 6.64887C373.04 6.9284 373.097 7.20504 373.207 7.46206C373.317 7.71908 373.478 7.95115 373.68 8.14426C373.882 8.33737 374.121 8.4875 374.383 8.58559C374.645 8.68368 374.924 8.72769 375.204 8.71496H371.069C370.79 8.70223 370.511 8.74624 370.249 8.84433C369.987 8.94242 369.748 9.09256 369.546 9.28567C369.343 9.47878 369.182 9.71085 369.072 9.96787C368.962 10.2249 368.906 10.5015 368.906 10.7811C368.906 11.0606 368.962 11.3372 369.072 11.5943C369.182 11.8513 369.343 12.0833 369.546 12.2765C369.748 12.4696 369.987 12.6197 370.249 12.7178C370.511 12.8159 370.79 12.8599 371.069 12.8472H394.995C395.527 12.8229 396.029 12.5947 396.397 12.2098C396.765 11.825 396.97 11.3133 396.97 10.7811C396.97 10.2488 396.765 9.7371 396.397 9.35228C396.029 8.96747 395.527 8.7392 394.995 8.71496H399.13C399.409 8.72769 399.688 8.68368 399.95 8.58559C400.212 8.4875 400.451 8.33737 400.653 8.14426C400.856 7.95115 401.017 7.71908 401.127 7.46206C401.236 7.20504 401.293 6.9284 401.293 6.64887C401.293 6.36933 401.236 6.0927 401.127 5.83567C401.017 5.57865 400.856 5.34658 400.653 5.15347C400.451 4.96036 400.212 4.81022 399.95 4.71213C399.688 4.61405 399.409 4.57004 399.13 4.58277Z" fill="#252223"/>
<path d="M235.353 243.16H235.448C235.448 243.16 220.383 201.782 216.162 196.174C216.162 196.174 211.745 193.565 211.947 189.15L206.524 162.855C206.524 162.855 206.606 162.773 206.743 162.623L206.859 162.494L206.992 162.34C207.715 161.482 208.32 160.531 208.791 159.512L208.877 159.315C209.079 158.854 209.248 158.379 209.384 157.895C209.57 157.961 209.769 157.991 209.967 157.98C210.165 157.97 210.36 157.92 210.538 157.834C210.538 157.834 210.538 157.693 210.538 157.44C210.538 157.44 210.487 155.882 210.483 153.445C210.483 152.767 210.483 152.029 210.483 151.244C210.65 150.638 210.792 150.003 210.912 149.325L210.693 149.222V149.124L210.508 149.038C210.659 143.267 211.148 135.89 212.56 130.866C212.609 130.688 212.661 130.512 212.715 130.338C214.385 124.85 214.432 118.152 214.862 112.488C215.195 113.199 215.482 113.932 215.72 114.68C215.932 114.442 216.176 114.236 216.446 114.067L218.129 127.527V143.404C218.129 143.404 215.317 163.88 224.139 160.066C232.962 156.251 226.548 142.198 226.548 142.198C226.548 142.198 226.548 134.371 227.754 130.355C228.548 127.712 228.037 119.164 227.591 113.62C228.45 113.771 228.956 113.891 228.956 113.891C229.152 113.086 229.24 112.26 229.218 111.432C229.403 102.176 217.983 87.2653 213.333 81.5755C212.008 79.5443 210.154 77.9125 207.971 76.8554L199.037 72.5301C199.037 72.5301 194.817 71.5003 193.172 68.2391C193.172 68.1834 193.142 68.1276 193.13 68.0718C193.316 67.9888 193.499 67.8987 193.679 67.8015C195.043 67.1454 196.239 66.1854 197.174 64.9952C199.076 62.5794 199.986 59.5542 200.853 56.6063C201.875 53.1393 202.905 49.5992 202.768 45.9862C202.63 42.3732 201.111 38.6186 198.045 36.7006C195.426 35.0614 191.773 34.7525 190.146 32.1264C189.716 31.4184 189.442 30.5774 188.858 30.0067C188.864 29.8889 188.828 29.7727 188.755 29.6797C188.682 29.5866 188.579 29.5229 188.463 29.5003L183.964 28.6164C183.9 28.6039 183.835 28.604 183.772 28.6167C183.709 28.6294 183.649 28.6543 183.596 28.6902C183.542 28.7261 183.496 28.7721 183.461 28.8257C183.425 28.8793 183.401 28.9394 183.388 29.0026V29.067C179.365 29.1786 175.416 30.181 171.827 32.002C170.552 32.6176 169.328 33.3351 168.169 34.1475C166.516 35.3146 164.889 36.8636 164.653 38.8675C164.537 39.8673 164.777 40.8928 164.575 41.8712C164.03 44.493 160.514 46.2008 161.029 48.8311C161.377 50.6162 163.399 51.3843 165.292 51.4057C164.766 53.2875 164.632 55.2575 164.899 57.1933C165.166 59.1291 165.828 60.9894 166.845 62.6585C167.861 64.3277 169.21 65.7701 170.808 66.8962C172.406 68.0223 174.218 68.8081 176.133 69.2046C177.51 71.1421 178.716 73.1951 179.739 75.3407C177.425 77.5377 172.578 82.6353 175.549 84.3517L169.367 99.619L169.968 115.354L167.362 117.68L167.933 118.392C165.013 121.79 158.256 129.218 153.314 131.196C152.603 131.482 151.914 131.82 151.254 132.209C150.351 132.781 149.347 133.175 148.296 133.367C147.837 133.418 147.383 133.507 146.939 133.633L145.758 131.188C145.658 130.979 145.517 130.793 145.345 130.639C145.172 130.485 144.971 130.366 144.752 130.29C144.534 130.214 144.302 130.182 144.071 130.195C143.84 130.208 143.614 130.267 143.406 130.368L142.68 130.716L140.963 131.544L140.246 131.891L139.705 132.153C139.285 132.356 138.963 132.717 138.809 133.157C138.655 133.597 138.683 134.08 138.885 134.5L140.315 137.461C138.284 139.25 137.288 141.387 140.057 143.378C141.12 144.156 142.41 144.563 143.728 144.537L144.586 146.335C144.687 146.543 144.827 146.73 145 146.883C145.173 147.037 145.374 147.156 145.593 147.232C145.811 147.308 146.043 147.34 146.274 147.327C146.505 147.314 146.731 147.255 146.939 147.154L148.197 146.545L150.635 145.369C150.844 145.269 151.031 145.128 151.185 144.956C151.339 144.783 151.457 144.582 151.533 144.363C151.609 144.145 151.642 143.914 151.628 143.683C151.615 143.452 151.556 143.226 151.455 143.018L150.743 141.537C152.338 140.298 153.8 138.896 155.105 137.354C155.105 137.354 158.771 135.058 160.931 134.543C162.36 134.204 167.37 130.913 170.479 128.828L171.363 151.999C171.168 152.3 170.941 152.579 170.685 152.831L171.376 152.342V152.514C171.283 152.625 171.184 152.731 171.08 152.831L171.38 152.617V152.896C171.282 153.013 171.178 153.125 171.067 153.23L171.384 153.007L171.513 155.44L173.024 152.934L173.119 155.44L173.471 154.857C169.229 162.061 163.704 172.668 160.75 183.34C160.75 183.34 156.131 191.368 156.732 199.598L148.296 240.363L148.459 240.423C145.711 242.405 139.92 246.039 134.24 246.185C134.24 246.185 120.583 245.782 124.4 248.794C128.216 251.807 162.158 256.222 162.158 256.222L163.446 246.074L163.747 246.185C163.747 246.185 163.747 246.13 163.747 246.027L164.176 246.185C164.176 246.185 163.356 241.139 166.361 238.329C169.367 235.518 176.403 207.005 175.806 202.598C175.806 202.598 181.199 189.128 187.948 178.388L195.881 198.779L204.717 214.033C204.717 214.033 216.472 240.157 216.094 245.975C213.625 248.979 209.225 253.699 205.923 253.574C205.923 253.574 192.468 256.183 201.707 258.595C210.946 261.006 238.058 251.987 238.058 251.987L235.353 243.16ZM176.536 149.763L176.618 149.716C176.189 150.364 175.759 151.08 175.27 151.861L176.536 149.763Z" fill="url(#paint0_linear)"/>
<path d="M170.685 152.84C170.354 153.08 170.174 153.213 170.174 153.213C170.361 153.114 170.534 152.988 170.685 152.84Z" fill="url(#paint1_linear)"/>
<path d="M171.084 153.243C170.753 153.483 170.573 153.616 170.573 153.616C170.76 153.518 170.932 153.392 171.084 153.243Z" fill="url(#paint2_linear)"/>
<path d="M171.084 152.84C170.753 153.08 170.573 153.213 170.573 153.213C170.76 153.114 170.932 152.988 171.084 152.84Z" fill="url(#paint3_linear)"/>
<path d="M217.042 241.045C217.042 241.045 209.993 251.026 205.292 250.828C205.292 250.828 192.172 253.373 201.179 255.72C210.186 258.067 236.619 249.262 236.619 249.262L233.477 239.028L217.042 241.045Z" fill="#333333"/>
<path d="M185.518 171.746L195.504 197.384L204.141 212.278C204.141 212.278 215.986 238.599 215.205 243.688L234.095 240.654C234.095 240.654 219.408 200.319 215.299 194.861C215.299 194.861 211.006 192.317 211.187 187.996L205.902 162.357C205.902 162.357 211.053 157.397 208.168 151.201C208.023 150.883 207.854 150.563 207.662 150.239C203.712 143.584 188.849 147.287 188.849 147.287L185.518 171.746Z" fill="#535461"/>
<path opacity="0.03" d="M185.518 171.746L195.504 197.384L204.141 212.278C204.141 212.278 215.986 238.599 215.205 243.688L234.095 240.654C234.095 240.654 219.408 200.319 215.299 194.861C215.299 194.861 211.006 192.317 211.187 187.996L205.902 162.357C205.902 162.357 211.053 157.397 208.168 151.201C208.023 150.883 207.854 150.563 207.662 150.239C203.712 143.584 188.849 147.287 188.849 147.287L185.518 171.746Z" fill="black"/>
<g opacity="0.1">
<path opacity="0.1" d="M215.282 194.861C215.282 194.861 210.989 192.317 211.169 187.996L205.884 162.357C205.884 162.357 211.036 157.397 208.151 151.201C208.005 150.883 207.836 150.563 207.645 150.239C205.747 147.013 201.265 146.223 197.156 146.27C201.097 146.305 205.245 147.167 207.056 150.239C207.248 150.563 207.417 150.883 207.563 151.201C210.435 157.414 205.296 162.357 205.296 162.357L210.581 188.009C210.384 192.299 214.694 194.874 214.694 194.874C218.807 200.354 233.49 240.667 233.49 240.667L215.192 243.607C215.192 243.637 215.192 243.671 215.192 243.701L234.082 240.667C234.082 240.667 219.395 200.341 215.282 194.861Z" fill="black"/>
</g>
<path d="M150.863 236.741C150.863 236.741 143.032 243.396 135.407 243.607C135.407 243.607 122.098 243.216 125.812 246.151C129.526 249.086 162.622 253.394 162.622 253.394L164.094 241.942L150.863 236.741Z" fill="#333333"/>
<g opacity="0.1">
<path opacity="0.1" d="M179.644 145.738C179.644 145.738 166.722 163.941 161.613 182.336C161.613 182.336 157.109 190.163 157.697 198.187L149.489 237.917L164.566 243.594C164.566 243.594 163.785 238.702 166.713 235.96C169.641 233.218 176.502 205.43 175.918 201.126C175.918 201.126 185.315 177.642 194.713 168.442C204.111 159.242 208.791 157.122 210.169 149.18C210.177 149.18 188.063 138.495 179.644 145.738Z" fill="black"/>
</g>
<path d="M179.241 145.738C179.241 145.738 166.318 163.941 161.21 182.336C161.21 182.336 156.706 190.163 157.294 198.187L149.068 237.917L164.146 243.594C164.146 243.594 163.365 238.702 166.293 235.96C169.221 233.218 176.081 205.43 175.497 201.126C175.497 201.126 184.895 177.642 194.293 168.442C203.691 159.242 208.37 157.122 209.748 149.18C209.787 149.18 187.673 138.495 179.241 145.738Z" fill="#535461"/>
<g opacity="0.1">
<path opacity="0.1" d="M187.599 143.026C197.306 143.142 209.396 148.982 209.396 148.982C208.013 156.925 203.338 159.045 193.94 168.244C184.543 177.444 175.141 200.924 175.141 200.924C175.729 205.215 168.877 233.021 165.936 235.758C163.36 238.144 163.643 242.156 163.751 243.16L164.369 243.392C164.369 243.392 163.588 238.5 166.515 235.758C169.443 233.016 176.317 205.215 175.729 200.924C175.729 200.924 185.126 177.44 194.524 168.24C203.922 159.04 208.602 156.92 209.98 148.978C209.984 149.004 197.396 142.906 187.599 143.026Z" fill="black"/>
</g>
<path d="M169.658 117.362C169.658 117.362 160.312 128.995 154.005 131.522C153.312 131.8 152.64 132.13 151.996 132.509C151.116 133.067 150.136 133.45 149.111 133.638C148.357 133.711 147.619 133.905 146.926 134.213C143.646 135.723 136.081 139.791 141.074 143.395C147.338 147.897 155.761 137.525 155.761 137.525C155.761 137.525 159.337 135.285 161.441 134.783C163.545 134.281 173.183 127.549 173.183 127.549L169.658 117.362Z" fill="#FDA57D"/>
<path d="M171.419 115.011L167.701 118.34L173.183 125.189L171.419 115.011Z" fill="#4D8AF0"/>
<g opacity="0.1">
<path opacity="0.1" d="M171.419 115.011L167.701 118.34L173.183 125.189L171.419 115.011Z" fill="black"/>
</g>
<path d="M180.847 76.0573C180.847 76.0573 171.934 83.6909 175.665 85.8407L169.654 100.713L171.728 155.118L180.224 141.027L174.42 110.497C174.42 110.497 172.763 92.2943 177.528 87.9905L182.087 78.9795L180.847 76.0573Z" fill="#4D8AF0"/>
<g opacity="0.1">
<path opacity="0.1" d="M182.414 76.0573C182.414 76.0573 173.501 83.6909 177.232 85.8407L171.221 100.713L173.295 155.118L181.791 141.027L175.987 110.497C175.987 110.497 174.329 92.2943 179.095 87.9905L183.654 78.9795L182.414 76.0573Z" fill="black"/>
</g>
<path d="M173.964 68.0418C173.964 68.0418 181.211 76.8468 181.014 81.9359C180.816 87.025 194.722 73.1309 194.722 73.1309C194.722 73.1309 189.437 66.673 190.807 59.8289C192.176 52.9848 173.964 68.0418 173.964 68.0418Z" fill="#FDA57D"/>
<path d="M215.282 112.273L217.24 127.931V143.378C217.24 143.378 214.497 163.34 223.113 159.624C231.729 155.908 225.461 142.207 225.461 142.207C225.461 142.207 225.461 134.573 226.638 130.66C227.814 126.746 226.037 109.527 226.037 109.527L215.282 112.273Z" fill="#FDA57D"/>
<path d="M188.454 75.2849C188.454 75.2849 183.169 80.374 180.426 78.6104L176.665 87.9518C174.367 93.662 173.324 99.7997 173.608 105.948L174.948 141.237L180.821 140.456L182.779 106.987L185.715 86.6345L188.454 75.2849Z" fill="#F2F2F2"/>
<g opacity="0.1">
<path opacity="0.1" d="M192.863 69.9041C192.863 69.9041 185.908 74.6971 183.964 78.8078C183.964 78.8078 183.766 83.309 182.203 85.2657C180.641 87.2224 179.069 97.0101 178.679 108.75C178.288 120.49 176.532 136.148 176.532 136.148C176.532 136.148 173.595 151.411 170.461 152.977C170.461 152.977 184.951 142.018 192 145.734C199.05 149.45 207.078 158.457 209.426 157.084C209.426 157.084 208.86 139.92 211.431 130.784C211.48 130.61 211.53 130.44 211.582 130.274C214.325 121.263 212.56 108.943 215.695 103.67C215.695 103.67 215.695 94.1051 213.887 86.9606C213.42 85.1365 212.559 83.4365 211.365 81.98C210.171 80.5234 208.673 79.3455 206.975 78.5289L198.268 74.3152C198.268 74.3152 193.645 73.62 192.863 69.9041Z" fill="black"/>
</g>
<g opacity="0.1">
<path opacity="0.1" d="M192.863 69.9041C192.863 69.9041 186.303 75.0918 184.345 79.1983C184.345 79.1983 184.148 83.6995 182.585 85.6562C181.022 87.6128 179.451 97.4005 179.06 109.141C178.67 120.881 176.914 136.538 176.914 136.538C176.914 136.538 173.977 151.801 170.843 153.368C170.843 153.368 185.333 142.408 192.382 146.124C199.432 149.84 207.46 158.847 209.808 157.474C209.808 157.474 209.242 140.31 211.813 131.175C211.862 131 211.912 130.83 211.963 130.664C214.707 121.653 212.942 109.334 216.076 104.06C216.076 104.06 216.076 94.4956 214.269 87.3511C213.802 85.5269 212.941 83.827 211.747 82.3704C210.553 80.9139 209.054 79.736 207.357 78.9194L198.65 74.7056C198.65 74.7056 193.644 73.62 192.863 69.9041Z" fill="black"/>
</g>
<path d="M192.764 69.8054C192.764 69.8054 186.303 74.6971 184.345 78.8164C184.345 78.8164 184.148 83.3176 182.585 85.2743C181.022 87.231 179.451 97.0186 179.06 108.759C178.67 120.499 176.914 136.157 176.914 136.157C176.914 136.157 173.977 151.419 170.843 152.986C170.843 152.986 185.333 142.027 192.382 145.743C199.432 149.458 207.447 158.444 209.8 157.088C209.8 157.088 209.233 139.924 211.805 130.789C211.853 130.614 211.903 130.444 211.955 130.278C214.698 121.267 212.934 108.948 216.068 103.674C216.068 103.674 216.068 94.1094 214.26 86.9649C213.793 85.1408 212.932 83.4408 211.738 81.9843C210.544 80.5277 209.046 79.3498 207.348 78.5332L198.642 74.3195C198.642 74.3195 194.233 73.2295 192.764 69.8054Z" fill="#4D8AF0"/>
<g opacity="0.1">
<path opacity="0.1" d="M210.68 81.2536C210.68 81.2536 230.553 103.858 227.814 114.62C227.814 114.62 217.63 112.273 214.891 115.401C214.891 115.401 212.745 108.158 206.275 104.052C199.805 99.9451 193.838 73.62 210.68 81.2536Z" fill="black"/>
</g>
<path d="M210.68 80.8632C210.68 80.8632 230.553 103.468 227.814 114.23C227.814 114.23 217.63 111.883 214.891 115.011C214.891 115.011 212.745 107.768 206.275 103.661C199.805 99.5546 193.838 73.2296 210.68 80.8632Z" fill="#4D8AF0"/>
<g opacity="0.1">
<path opacity="0.1" d="M191.296 64.2271C190.987 62.648 191.244 62.5107 191.588 60.7943C192.957 53.9288 174.75 69.0158 174.75 69.0158C174.75 69.0158 175.763 70.2473 177.021 72.0581C177.949 72.2494 178.894 72.3457 179.842 72.3456C184.822 72.3499 188.836 68.1491 191.296 64.2271Z" fill="black"/>
</g>
<path d="M179.056 71.3673C186.734 71.3673 192.958 65.1466 192.958 57.4731C192.958 49.7996 186.734 43.579 179.056 43.579C171.379 43.579 165.155 49.7996 165.155 57.4731C165.155 65.1466 171.379 71.3673 179.056 71.3673Z" fill="#FDA57D"/>
<g opacity="0.1">
<path opacity="0.1" d="M166.567 53.6713C164.519 53.946 161.909 53.2422 161.514 51.2384C161.016 48.6638 164.442 47.0118 164.974 44.4544C165.172 43.4932 164.936 42.4934 165.052 41.5236C165.284 39.5627 166.868 38.0565 168.486 36.9151C173.594 33.3345 179.807 31.6803 186.02 32.2466C186.796 32.2564 187.551 32.4953 188.192 32.9331C188.866 33.4867 189.128 34.3878 189.587 35.1301C191.176 37.7047 194.739 37.9922 197.289 39.5884C200.295 41.455 201.759 45.1195 201.892 48.638C202.025 52.1566 201.033 55.6109 200.024 58.9921C199.165 61.8671 198.307 64.8193 196.435 67.1707C194.563 69.5222 191.502 71.1699 188.587 70.4619C189.922 69.5007 188.952 67.2694 187.505 66.4842C186.058 65.6989 184.264 65.5659 183.027 64.4846C181.791 63.4032 181.422 61.6354 181.018 60.0263C180.512 57.9966 179.773 55.937 178.292 54.448C175.377 51.5516 170.135 53.1908 166.567 53.6713Z" fill="black"/>
</g>
<path d="M166.958 53.4783C164.91 53.7529 162.3 53.0492 161.905 51.0453C161.407 48.4707 164.833 46.8187 165.365 44.2613C165.563 43.3001 165.326 42.3003 165.442 41.3306C165.674 39.3696 167.258 37.8635 168.877 36.7221C173.985 33.1415 180.197 31.4872 186.41 32.0535C187.186 32.0634 187.942 32.3022 188.583 32.7401C189.257 33.2936 189.519 34.1947 189.978 34.937C191.566 37.5116 195.13 37.7991 197.68 39.3953C200.685 41.2619 202.149 44.9264 202.282 48.445C202.415 51.9636 201.424 55.4178 200.415 58.7991C199.556 61.674 198.697 64.6262 196.826 66.9777C194.954 69.3291 191.893 70.9768 188.978 70.2688C190.313 69.3077 189.343 67.0763 187.896 66.2911C186.449 65.5059 184.654 65.3728 183.418 64.2915C182.182 63.2102 181.817 61.4423 181.387 59.8332C180.881 57.8036 180.142 55.7439 178.661 54.255C175.772 51.3543 170.526 52.9977 166.958 53.4783Z" fill="#72351C"/>
<path d="M187.449 39.3781L188.707 32.9417C188.72 32.88 188.72 32.8164 188.707 32.7546C188.695 32.6928 188.671 32.6341 188.636 32.5818C188.601 32.5296 188.555 32.4848 188.503 32.45C188.45 32.4153 188.391 32.3914 188.329 32.3796L183.886 31.5214C183.824 31.5089 183.761 31.5088 183.699 31.5211C183.637 31.5334 183.578 31.5578 183.526 31.5929C183.474 31.628 183.429 31.6731 183.394 31.7257C183.359 31.7782 183.335 31.8371 183.324 31.899L182.066 38.3354L177.772 54.2463L185.65 55.7825L187.449 39.3781Z" fill="#CBDAE3"/>
<g opacity="0.1">
<path opacity="0.1" d="M180.915 64.6176C184.7 64.6176 187.767 61.5515 187.767 57.7692C187.767 53.987 184.7 50.9208 180.915 50.9208C177.131 50.9208 174.063 53.987 174.063 57.7692C174.063 61.5515 177.131 64.6176 180.915 64.6176Z" fill="black"/>
</g>
<path d="M180.915 64.8107C184.7 64.8107 187.767 61.7446 187.767 57.9623C187.767 54.1801 184.7 51.114 180.915 51.114C177.131 51.114 174.063 54.1801 174.063 57.9623C174.063 61.7446 177.131 64.8107 180.915 64.8107Z" fill="#CBDAE3"/>
<path d="M180.915 62.4507C183.395 62.4507 185.406 60.4412 185.406 57.9623C185.406 55.4835 183.395 53.474 180.915 53.474C178.435 53.474 176.424 55.4835 176.424 57.9623C176.424 60.4412 178.435 62.4507 180.915 62.4507Z" fill="#E9E9E9"/>
<path d="M180.915 59.3311C181.671 59.3311 182.284 58.7183 182.284 57.9623C182.284 57.2063 181.671 56.5935 180.915 56.5935C180.159 56.5935 179.545 57.2063 179.545 57.9623C179.545 58.7183 180.159 59.3311 180.915 59.3311Z" fill="#F48681"/>
<path opacity="0.05" d="M187.563 38.7941L182.183 37.7438L182.145 37.9376L187.526 38.9878L187.563 38.7941Z" fill="black"/>
<path d="M142.179 131.762L142.175 131.764C140.52 132.562 139.825 134.549 140.623 136.204L144.792 144.846C145.59 146.501 147.578 147.195 149.234 146.398L149.238 146.396C150.893 145.598 151.588 143.61 150.79 141.956L146.621 133.314C145.823 131.659 143.834 130.965 142.179 131.762Z" fill="#CBDAE3"/>
<g opacity="0.1">
<path opacity="0.1" d="M142.179 131.762L142.175 131.764C140.52 132.562 139.825 134.549 140.623 136.204L144.792 144.846C145.59 146.501 147.578 147.195 149.234 146.398L149.238 146.396C150.893 145.598 151.588 143.61 150.79 141.956L146.621 133.314C145.823 131.659 143.834 130.965 142.179 131.762Z" fill="black"/>
</g>
<path d="M147.368 133.063C146.547 131.359 144.499 130.644 142.795 131.465C141.09 132.287 140.375 134.334 141.196 136.037L145.28 144.502C146.101 146.205 148.149 146.92 149.853 146.099C151.558 145.278 152.273 143.231 151.452 141.528L147.368 133.063Z" fill="#CBDAE3"/>
<path d="M145.632 131.401L140.968 133.648L146.325 144.753L150.989 142.505L145.632 131.401Z" fill="#F2F2F2"/>
<path d="M149.682 145.526C149.975 145.385 150.06 144.956 149.873 144.567C149.685 144.179 149.296 143.978 149.003 144.119C148.711 144.26 148.626 144.689 148.813 145.078C149 145.466 149.39 145.667 149.682 145.526Z" fill="#F2F2F2"/>
</g>
<defs>
<linearGradient id="paint0_linear" x1="123.709" y1="143.812" x2="238.058" y2="143.812" gradientUnits="userSpaceOnUse">
<stop stop-color="#808080" stop-opacity="0.25"/>
<stop offset="0.54" stop-color="#808080" stop-opacity="0.12"/>
<stop offset="1" stop-color="#808080" stop-opacity="0.1"/>
</linearGradient>
<linearGradient id="paint1_linear" x1="435.259" y1="326.942" x2="435.867" y2="326.942" gradientUnits="userSpaceOnUse">
<stop stop-color="#808080" stop-opacity="0.25"/>
<stop offset="0.54" stop-color="#808080" stop-opacity="0.12"/>
<stop offset="1" stop-color="#808080" stop-opacity="0.1"/>
</linearGradient>
<linearGradient id="paint2_linear" x1="436.133" y1="327.7" x2="436.746" y2="327.7" gradientUnits="userSpaceOnUse">
<stop stop-color="#808080" stop-opacity="0.25"/>
<stop offset="0.54" stop-color="#808080" stop-opacity="0.12"/>
<stop offset="1" stop-color="#808080" stop-opacity="0.1"/>
</linearGradient>
<linearGradient id="paint3_linear" x1="436.133" y1="326.942" x2="436.746" y2="326.942" gradientUnits="userSpaceOnUse">
<stop stop-color="#808080" stop-opacity="0.25"/>
<stop offset="0.54" stop-color="#808080" stop-opacity="0.12"/>
<stop offset="1" stop-color="#808080" stop-opacity="0.1"/>
</linearGradient>
<clipPath id="clip0">
<rect width="410" height="292" fill="white"/>
</clipPath>
</defs>
</svg>