<svg width="733" height="652" viewBox="0 0 733 652" fill="none" xmlns="http://www.w3.org/2000/svg">
<g opacity="0.6" clip-path="url(#clip0)">
<path d="M670.394 269.767H569.679C568.159 269.766 566.703 269.161 565.628 268.087C564.554 267.013 563.949 265.556 563.948 264.037V251.955C563.949 250.435 564.554 248.979 565.628 247.905C566.703 246.83 568.159 246.226 569.679 246.224H670.394C671.914 246.226 673.371 246.83 674.445 247.905C675.519 248.979 676.124 250.435 676.126 251.955V264.037C676.124 265.556 675.519 267.013 674.445 268.087C673.371 269.161 671.914 269.766 670.394 269.767Z" fill="#F2F2F2"/>
<path d="M656.804 251.293L613.882 212.597C612.957 211.763 611.769 211.28 610.524 211.232C609.28 211.184 608.058 211.575 607.072 212.336L513.138 243.346C511.799 243.79 510.691 244.747 510.056 246.007C509.422 247.267 509.313 248.727 509.754 250.067L513.542 261.541C513.76 262.205 514.107 262.82 514.563 263.35C515.02 263.879 515.576 264.314 516.2 264.628C516.825 264.943 517.505 265.131 518.203 265.182C518.9 265.233 519.601 265.145 520.264 264.925L606.431 236.478L641.584 268.17C642.558 269.053 643.826 269.541 645.141 269.54C645.235 269.54 645.329 269.537 645.423 269.532C646.121 269.498 646.806 269.326 647.437 269.025C648.068 268.724 648.634 268.302 649.101 267.781L657.192 258.808C658.136 257.759 658.625 256.379 658.552 254.97C658.479 253.561 657.85 252.239 656.804 251.293Z" fill="#F2F2F2"/>
<path d="M181.516 540.649C180.214 540.651 178.965 541.169 178.044 542.09C177.123 543.01 176.605 544.259 176.604 545.561V646.263C176.605 647.566 177.123 648.814 178.044 649.735C178.965 650.656 180.214 651.174 181.516 651.175H193.601C194.903 651.174 196.152 650.656 197.073 649.735C197.994 648.814 198.512 647.566 198.513 646.263V545.561C198.512 544.259 197.994 543.01 197.073 542.09C196.152 541.169 194.903 540.651 193.601 540.649H181.516Z" fill="#F2F2F2"/>
<path d="M219.139 651.993H207.055C205.535 651.992 204.079 651.387 203.004 650.313C201.93 649.239 201.325 647.782 201.324 646.263V545.561C201.325 544.042 201.93 542.585 203.004 541.511C204.079 540.437 205.535 539.832 207.055 539.831H219.139C220.658 539.832 222.115 540.437 223.19 541.511C224.264 542.585 224.868 544.042 224.87 545.561V646.263C224.868 647.782 224.264 649.239 223.19 650.313C222.115 651.387 220.658 651.992 219.139 651.993Z" fill="#F2F2F2"/>
<path d="M238.924 553.368C238.924 553.368 243.489 594.417 197.398 593.023C151.307 591.629 169.24 551.294 169.24 551.294C169.24 551.294 178.872 543.726 203.219 551.045C227.567 558.365 238.924 553.368 238.924 553.368Z" fill="#CCCCCC"/>
<path d="M219.117 483.51C216.585 483.514 214.12 482.702 212.086 481.195C210.052 479.687 208.559 477.564 207.827 475.141C207.096 472.718 207.165 470.123 208.025 467.742C208.885 465.362 210.49 463.321 212.602 461.925L291.55 409.681C292.178 409.265 292.881 408.977 293.62 408.834C294.359 408.69 295.119 408.694 295.856 408.844C296.594 408.994 297.294 409.288 297.918 409.708C298.542 410.129 299.077 410.669 299.492 411.297L306.162 421.372C306.999 422.64 307.299 424.188 306.996 425.677C306.693 427.165 305.812 428.473 304.546 429.313L225.597 481.558C223.676 482.832 221.422 483.511 219.117 483.51Z" fill="#F2F2F2"/>
<path d="M204.782 435.146C227.843 435.146 246.537 416.454 246.537 393.396C246.537 370.339 227.843 351.647 204.782 351.647C181.721 351.647 163.027 370.339 163.027 393.396C163.027 416.454 181.721 435.146 204.782 435.146Z" fill="#F2F2F2"/>
<path d="M204.813 410.922C207.52 410.847 210.888 410.753 213.484 408.858C214.256 408.27 214.891 407.521 215.344 406.662C215.796 405.803 216.056 404.856 216.104 403.887C216.15 403.198 216.037 402.507 215.773 401.869C215.509 401.231 215.101 400.663 214.58 400.208C213.225 399.063 211.246 398.795 209.113 399.421L211.323 383.274L209.7 383.051L207.102 402.035L208.457 401.414C210.028 400.693 212.184 400.327 213.523 401.459C213.852 401.755 214.109 402.123 214.272 402.534C214.436 402.945 214.503 403.388 214.467 403.829C214.427 404.551 214.233 405.255 213.896 405.895C213.56 406.534 213.09 407.094 212.518 407.536C210.498 409.011 207.813 409.201 204.768 409.286L204.813 410.922Z" fill="#2F2E41"/>
<path d="M228.165 384.666H219.346V386.303H228.165V384.666Z" fill="#2F2E41"/>
<path d="M200.328 384.666H191.509V386.303H200.328V384.666Z" fill="#2F2E41"/>
<path d="M162.604 562.017C162.604 562.017 158.999 439.457 209.472 447.868C259.944 456.279 238.914 574.633 238.914 574.633C238.914 574.633 228.098 596.262 201.66 572.23C175.222 548.199 162.604 562.017 162.604 562.017Z" fill="#2F2E41"/>
<path d="M181.231 358.133C189.355 352.617 199.61 356.364 207.504 360.3C215.171 364.123 223.81 368.987 232.485 365.305C235.873 363.867 238.627 361.054 239.106 357.291C239.676 352.807 236.964 348.61 233.949 345.562C230.671 342.426 226.853 339.91 222.679 338.136C218.586 336.295 214.275 334.984 209.851 334.236C201.086 332.721 192.086 333.323 183.601 335.99C175.116 338.657 167.391 343.313 161.07 349.569C154.955 355.806 150.23 363.266 147.206 371.46C144.183 379.654 142.929 388.395 143.528 397.108C144.218 406.396 147.185 415.866 153.137 423.157C158.721 429.998 167.082 434.807 176.006 435.208C178.193 435.311 180.384 435.133 182.525 434.679C184.067 434.35 184.726 436.717 183.178 437.047C173.884 439.029 164.255 436.084 156.883 430.286C149.123 424.183 144.361 414.943 142.274 405.423C138.279 387.205 143.283 367.598 154.752 353.013C160.416 345.749 167.752 339.96 176.136 336.142C184.794 332.277 194.253 330.541 203.72 331.081C213.161 331.555 222.32 334.457 230.312 339.506C237.46 344.125 245.516 353.916 239.686 362.579C237.506 365.819 233.887 367.792 230.13 368.603C225.819 369.442 221.358 369.053 217.256 367.482C207.918 364.184 199.281 356.817 188.828 357.933C186.549 358.17 184.365 358.967 182.47 360.254C181.159 361.144 179.929 359.017 181.231 358.133H181.231Z" fill="#2F2E41"/>
<path d="M537.976 167.982C536.085 166.767 534.597 165.019 533.699 162.959C532.802 160.898 532.536 158.618 532.935 156.407C533.333 154.195 534.379 152.151 535.94 150.534C537.5 148.916 539.505 147.798 541.701 147.32L634.208 127.185C635.587 126.886 637.028 127.147 638.215 127.909C639.402 128.672 640.238 129.874 640.54 131.252L640.14 131.34L640.54 131.252L643.11 143.058C643.259 143.741 643.272 144.447 643.148 145.134C643.024 145.822 642.765 146.479 642.388 147.066C642.01 147.654 641.52 148.162 640.946 148.561C640.372 148.959 639.725 149.241 639.042 149.39L546.535 169.525C546.134 169.612 545.729 169.678 545.321 169.722C542.746 170.003 540.152 169.388 537.976 167.982Z" fill="#F2F2F2"/>
<path d="M530.402 161.308C530.347 161.089 530.298 160.867 530.255 160.643C529.494 156.637 530.884 152.419 534.167 148.766C537.733 144.973 542.389 142.38 547.491 141.345L589.665 132.119C590.36 131.967 591.078 131.956 591.778 132.086C592.477 132.217 593.143 132.486 593.736 132.878C594.33 133.27 594.839 133.777 595.233 134.369C595.627 134.961 595.898 135.626 596.031 136.325L599.711 155.705C599.976 157.067 599.697 158.479 598.932 159.636C598.166 160.794 596.977 161.605 595.62 161.895L553.179 171.178C551.266 171.601 549.312 171.816 547.353 171.82C538.992 171.82 532.03 167.748 530.402 161.308Z" fill="#2F2E41"/>
<path d="M537.783 117.944C560.843 117.944 579.538 99.2523 579.538 76.1946C579.538 53.1368 560.843 34.4448 537.783 34.4448C514.722 34.4448 496.027 53.1368 496.027 76.1946C496.027 99.2523 514.722 117.944 537.783 117.944Z" fill="#F2F2F2"/>
<path d="M573.019 91.2644C575.726 91.1893 579.094 91.0954 581.69 89.1999C582.462 88.6123 583.097 87.8629 583.55 87.0042C584.002 86.1454 584.262 85.1981 584.31 84.2286C584.356 83.5396 584.243 82.849 583.979 82.211C583.715 81.5729 583.307 81.0045 582.786 80.5504C581.431 79.4052 579.452 79.1366 577.319 79.7633L579.529 63.6155L577.906 63.3933L575.308 82.3771L576.663 81.7556C578.234 81.0353 580.39 80.6687 581.729 81.8007C582.058 82.0967 582.315 82.4645 582.478 82.8756C582.642 83.2867 582.709 83.73 582.673 84.171C582.633 84.8926 582.439 85.5972 582.102 86.2368C581.766 86.8764 581.296 87.436 580.724 87.8776C578.704 89.3526 576.019 89.5429 572.974 89.628L573.019 91.2644Z" fill="#2F2E41"/>
<path d="M568.534 65.0081H559.715V66.6453H568.534V65.0081Z" fill="#2F2E41"/>
<path d="M534.861 34.3211C534.554 29.3859 533.19 24.5743 530.861 20.2122C528.532 15.85 525.293 12.0391 521.363 9.03751C517.303 6.03102 512.617 3.97825 507.654 3.0318C502.69 2.08535 497.578 2.26957 492.696 3.57075C487.845 4.83107 483.343 7.17602 479.531 10.4288C475.718 13.6816 472.694 17.7573 470.686 22.3488C468.665 26.9061 467.656 31.8475 467.73 36.8322C467.953 42.2529 469.3 47.5682 471.685 52.441C474.147 57.8047 477.253 62.8368 479.95 68.0801C482.606 73.2505 484.898 78.6002 486.808 84.0899C490.696 95.2758 492.989 106.953 493.621 118.778C494.624 137.419 492.84 164.633 471.794 171.786C466.442 173.606 460.669 173.944 455.058 173.929C449.148 174.002 443.253 173.311 437.52 171.876C427.584 169.223 418.153 162.994 413.919 153.316C412.943 151.081 412.289 148.719 411.976 146.301C411.888 145.638 412.604 145.079 413.204 145.073C413.528 145.081 413.835 145.213 414.064 145.441C414.293 145.67 414.425 145.978 414.432 146.301C415.803 156.614 424.398 164.523 433.729 168.078C439.182 170.054 444.91 171.162 450.706 171.362C456.475 171.653 462.465 171.608 468.114 170.281C473.142 169.193 477.718 166.592 481.225 162.829C484.352 159.23 486.684 155.011 488.069 150.449C491.391 140.311 491.739 129.164 491.156 118.596C490.495 106.81 488.152 95.1789 484.198 84.0559C482.201 78.4399 479.792 72.9791 476.99 67.7179C474.254 62.5718 471.215 57.5712 468.909 52.2073C466.659 47.2771 465.421 41.9452 465.27 36.5278C465.252 31.5247 466.248 26.5698 468.198 21.962C470.115 17.336 472.988 13.1676 476.63 9.73063C480.272 6.29366 484.6 3.66582 489.33 2.01966C494.142 0.344908 499.251 -0.305389 504.329 0.110513C509.407 0.526414 514.342 1.99933 518.817 4.43471C523.074 6.88153 526.804 10.1477 529.791 14.0445C532.778 17.9413 534.963 22.3913 536.219 27.1375C536.83 29.4882 537.198 31.8954 537.318 34.3211C537.399 35.9007 534.942 35.8964 534.862 34.3211H534.861Z" fill="#2F2E41"/>
<path d="M526.696 35.1833C526.026 30.6283 523.744 26.465 520.263 23.4501C516.565 20.3501 511.823 18.7764 507.004 19.0496C505.424 19.1286 505.428 16.6725 507.004 16.5937C512.241 16.3576 517.383 18.0545 521.45 21.3617C525.518 24.6689 528.228 29.3557 529.065 34.5304C529.301 36.0766 526.934 36.7431 526.696 35.1833Z" fill="#2F2E41"/>
<path d="M521.536 35.3254C521.161 34.1915 521.253 32.9554 521.79 31.8889C522.327 30.8224 523.266 30.013 524.4 29.6386L536.062 25.7885C537.196 25.4142 538.432 25.5055 539.499 26.0426C540.565 26.5796 541.375 27.5183 541.749 28.6521C542.124 29.786 542.032 31.0221 541.495 32.0886C540.958 33.1551 540.019 33.9645 538.885 34.3389L527.223 38.189C526.662 38.3746 526.069 38.4477 525.48 38.4043C524.89 38.3608 524.314 38.2015 523.786 37.9356C523.258 37.6697 522.787 37.3023 522.401 36.8544C522.015 36.4066 521.721 35.887 521.536 35.3255V35.3254Z" fill="#2F2E41"/>
<path d="M612.603 92.0543C611.85 92.2134 611.157 92.5816 610.603 93.1166C610.049 93.6516 609.657 94.3319 609.472 95.0794C609.287 95.8268 609.316 96.6113 609.557 97.3428C609.797 98.0744 610.239 98.7234 610.831 99.2154L628.853 114.187C629.116 114.41 629.334 114.682 629.494 114.987C629.642 115.296 629.726 115.633 629.739 115.975L630.864 143.432C630.884 144.331 631.206 145.196 631.778 145.89C632.349 146.583 633.138 147.064 634.016 147.255L634.048 147.263C634.915 147.475 635.828 147.39 636.642 147.023C637.456 146.656 638.124 146.027 638.539 145.237L645.04 133.384C645.258 132.993 645.578 132.67 645.965 132.447C646.353 132.225 646.794 132.112 647.241 132.121C647.57 132.123 647.895 132.193 648.195 132.326C648.496 132.46 648.766 132.654 648.988 132.896L680.182 166.178C680.632 166.661 681.193 167.027 681.817 167.245C682.44 167.463 683.107 167.526 683.76 167.428C684.411 167.331 685.029 167.079 685.563 166.694C686.096 166.308 686.529 165.8 686.825 165.212L732.565 73.7131C732.911 73.0242 733.055 72.2517 732.981 71.4845C732.907 70.7172 732.619 69.9863 732.148 69.3758C731.677 68.7653 731.044 68.3001 730.321 68.0336C729.597 67.7671 728.813 67.7101 728.059 67.8692L726.578 68.1788L612.603 92.0543L612.603 92.0543ZM611.873 97.958C611.518 97.6618 611.254 97.2717 611.11 96.8323C610.967 96.3929 610.95 95.9219 611.062 95.4734C611.173 95.0249 611.409 94.6168 611.742 94.2961C612.075 93.9753 612.491 93.7547 612.944 93.6596L726.883 69.7927L728.399 69.4745C728.851 69.3814 729.32 69.4171 729.752 69.5775C730.185 69.7379 730.563 70.0165 730.845 70.3817C731.127 70.7468 731.301 71.1837 731.346 71.6427C731.392 72.1017 731.308 72.5642 731.103 72.9777L685.364 164.476C685.186 164.83 684.926 165.135 684.605 165.366C684.285 165.598 683.913 165.748 683.522 165.805C683.13 165.862 682.731 165.823 682.358 165.693C681.984 165.563 681.648 165.344 681.377 165.056L650.183 131.775C649.878 131.442 649.519 131.164 649.119 130.954L728.382 73.4586C728.694 73.2372 728.919 72.9139 729.017 72.5445C729.116 72.1751 729.082 71.7829 728.922 71.4358C728.762 71.0886 728.486 70.8083 728.141 70.6433C727.796 70.4784 727.404 70.4391 727.033 70.5323C726.942 70.5539 726.854 70.5844 726.769 70.6232L630.528 113.577C630.342 113.338 630.129 113.121 629.894 112.929L611.873 97.958V97.958Z" fill="#CCCCCC"/>
<path d="M612.603 92.0543C611.85 92.2134 611.157 92.5816 610.603 93.1166C610.049 93.6516 609.657 94.3319 609.472 95.0794C609.287 95.8268 609.316 96.6113 609.557 97.3428C609.797 98.0744 610.239 98.7234 610.831 99.2154L628.853 114.187C629.116 114.41 629.334 114.682 629.494 114.987C629.642 115.296 629.726 115.633 629.739 115.975L630.864 143.432C630.884 144.331 631.206 145.196 631.778 145.89C632.349 146.583 633.138 147.064 634.016 147.255L634.048 147.263C634.915 147.475 635.828 147.39 636.642 147.023C637.456 146.656 638.124 146.027 638.539 145.237L645.04 133.384C645.258 132.993 645.578 132.67 645.965 132.447C646.353 132.225 646.794 132.112 647.241 132.121C647.57 132.123 647.895 132.193 648.195 132.326C648.496 132.46 648.766 132.654 648.988 132.896L680.182 166.178C680.632 166.661 681.193 167.027 681.817 167.245C682.44 167.463 683.107 167.526 683.76 167.428C684.411 167.331 685.029 167.079 685.563 166.694C686.096 166.308 686.529 165.8 686.825 165.212L732.565 73.7131C732.911 73.0242 733.055 72.2517 732.981 71.4845C732.907 70.7172 732.619 69.9863 732.148 69.3758C731.677 68.7653 731.044 68.3001 730.321 68.0336C729.597 67.7671 728.813 67.7101 728.059 67.8692L726.578 68.1788L612.603 92.0543L612.603 92.0543ZM611.873 97.958C611.518 97.6618 611.254 97.2717 611.11 96.8323C610.967 96.3929 610.95 95.9219 611.062 95.4734C611.173 95.0249 611.409 94.6168 611.742 94.2961C612.075 93.9753 612.491 93.7547 612.944 93.6596L726.883 69.7927L728.399 69.4745C728.851 69.3814 729.32 69.4171 729.752 69.5775C730.185 69.7379 730.563 70.0165 730.845 70.3817C731.127 70.7468 731.301 71.1837 731.346 71.6427C731.392 72.1017 731.308 72.5642 731.103 72.9777L685.364 164.476C685.186 164.83 684.926 165.135 684.605 165.366C684.285 165.598 683.913 165.748 683.521 165.805C683.13 165.862 682.731 165.823 682.358 165.693C681.984 165.563 681.648 165.344 681.377 165.056L650.183 131.775C649.878 131.442 649.519 131.164 649.119 130.953C648.548 130.647 647.91 130.485 647.262 130.481C647.17 130.477 647.077 130.481 646.984 130.484L646.976 130.483C646.281 130.519 645.606 130.732 645.017 131.102C644.427 131.471 643.942 131.986 643.607 132.596L637.105 144.457C636.856 144.933 636.454 145.312 635.964 145.531C635.474 145.75 634.924 145.797 634.403 145.664L634.387 145.661C633.859 145.55 633.384 145.262 633.041 144.845C632.698 144.428 632.507 143.907 632.499 143.368L631.374 115.911C631.365 115.62 631.324 115.332 631.251 115.051L631.252 115.043C631.183 114.774 631.085 114.512 630.96 114.263C630.841 114.02 630.696 113.79 630.528 113.577C630.342 113.338 630.129 113.121 629.895 112.929L611.873 97.958V97.958Z" fill="#3F3D56"/>
<path d="M630.528 113.577L726.769 70.6231C726.854 70.5842 726.942 70.5538 727.033 70.5322C727.404 70.4389 727.796 70.4782 728.141 70.6432C728.485 70.8082 728.762 71.0885 728.922 71.4356C729.082 71.7828 729.116 72.175 729.017 72.5443C728.919 72.9137 728.694 73.237 728.382 73.4584L649.119 130.953L647.721 131.97L646.763 130.644L646.976 130.483L646.984 130.484L727.417 72.1307L631.252 115.043L631.251 115.051L630.832 115.233L630.164 113.738L630.528 113.577Z" fill="#3F3D56"/>
<path d="M510.286 243.917C509.092 243.918 507.947 244.393 507.103 245.237C506.259 246.081 505.784 247.225 505.783 248.419V264.792C505.784 265.985 506.259 267.13 507.103 267.974C507.947 268.818 509.092 269.293 510.286 269.294H562.685C563.878 269.293 565.023 268.818 565.867 267.974C566.711 267.13 567.186 265.985 567.188 264.792V248.419C567.186 247.225 566.711 246.081 565.867 245.237C565.023 244.393 563.878 243.918 562.685 243.917H510.286Z" fill="#2F2E41"/>
<path d="M504.108 160.867C501.606 168.118 501.14 175.915 502.759 183.412C506.924 203.824 505.373 227.955 501.28 253.74C501.28 256.453 503.17 258.652 505.501 258.652H569.517C571.848 258.652 573.738 256.453 573.738 253.74V177.199C573.738 154.581 558.36 136.072 539.126 135.089C538.592 135.056 538.05 135.04 537.509 135.04C522.504 135.04 509.602 145.707 504.108 160.867Z" fill="#2F2E41"/>
<path d="M524.496 260.208V165.547C524.496 162.534 525.693 159.644 527.824 157.513C529.955 155.382 532.846 154.185 535.859 154.185C538.873 154.185 541.764 155.382 543.895 157.513C546.026 159.644 547.223 162.534 547.223 165.547V260.208C547.222 261.619 546.661 262.971 545.663 263.969C544.665 264.966 543.313 265.527 541.902 265.529H529.817C528.406 265.527 527.054 264.966 526.056 263.969C525.058 262.971 524.497 261.619 524.496 260.208Z" fill="#F2F2F2"/>
<path d="M543.934 192.407L526.757 191.651C525.348 191.588 524.021 190.967 523.068 189.927C522.116 188.886 521.614 187.511 521.675 186.101L522.881 158.704C522.958 156.875 523.394 155.079 524.165 153.42C524.937 151.76 526.028 150.268 527.377 149.031C528.725 147.793 530.305 146.834 532.025 146.208C533.745 145.581 535.571 145.3 537.4 145.381C539.229 145.461 541.023 145.902 542.682 146.677C544.34 147.452 545.829 148.546 547.064 149.898C548.298 151.249 549.254 152.83 549.877 154.552C550.499 156.273 550.776 158.1 550.691 159.928L549.485 187.325C549.425 188.694 548.839 189.986 547.85 190.934C546.861 191.881 545.544 192.411 544.174 192.412C544.095 192.412 544.015 192.411 543.934 192.407Z" fill="#2F2E41"/>
<path d="M573.738 209.944C575.772 209.944 577.422 204.63 577.422 198.074C577.422 191.518 575.772 186.204 573.738 186.204C571.703 186.204 570.053 191.518 570.053 198.074C570.053 204.63 571.703 209.944 573.738 209.944Z" fill="#2F2E41"/>
<path d="M371.827 345.835C383.131 345.835 392.295 336.672 392.295 325.37C392.295 314.067 383.131 304.904 371.827 304.904C360.522 304.904 351.358 314.067 351.358 325.37C351.358 336.672 360.522 345.835 371.827 345.835Z" fill="#CCCCCC"/>
<path d="M574.24 345.835H417.044C415.307 345.835 413.641 345.145 412.413 343.917C411.184 342.689 410.494 341.023 410.494 339.286C410.494 337.549 411.184 335.884 412.413 334.655C413.641 333.427 415.307 332.737 417.044 332.737H574.24C575.978 332.737 577.644 333.427 578.872 334.655C580.1 335.884 580.79 337.549 580.79 339.286C580.79 341.023 580.1 342.689 578.872 343.917C577.644 345.145 575.978 345.835 574.24 345.835Z" fill="#CCCCCC"/>
<path d="M531.666 318.002H417.044C415.307 318.002 413.641 317.312 412.413 316.084C411.184 314.856 410.494 313.19 410.494 311.453C410.494 309.716 411.184 308.05 412.413 306.822C413.641 305.594 415.307 304.904 417.044 304.904H531.666C533.404 304.904 535.07 305.594 536.298 306.822C537.526 308.05 538.216 309.716 538.216 311.453C538.216 313.19 537.526 314.856 536.298 316.084C535.07 317.312 533.404 318.002 531.666 318.002Z" fill="#CCCCCC"/>
<path d="M371.827 423.604C383.131 423.604 392.295 414.442 392.295 403.139C392.295 391.836 383.131 382.673 371.827 382.673C360.522 382.673 351.358 391.836 351.358 403.139C351.358 414.442 360.522 423.604 371.827 423.604Z" fill="#CCCCCC"/>
<path d="M574.24 423.604H417.044C415.307 423.604 413.641 422.914 412.413 421.686C411.184 420.458 410.494 418.792 410.494 417.055C410.494 415.318 411.184 413.653 412.413 412.424C413.641 411.196 415.307 410.506 417.044 410.506H574.24C575.978 410.506 577.644 411.196 578.872 412.424C580.1 413.653 580.79 415.318 580.79 417.055C580.79 418.792 580.1 420.458 578.872 421.686C577.644 422.914 575.978 423.604 574.24 423.604Z" fill="#CCCCCC"/>
<path d="M531.666 395.771H417.044C415.307 395.771 413.641 395.081 412.413 393.853C411.184 392.625 410.494 390.959 410.494 389.222C410.494 387.485 411.184 385.82 412.413 384.591C413.641 383.363 415.307 382.673 417.044 382.673H531.666C533.404 382.673 535.07 383.363 536.298 384.591C537.526 385.82 538.216 387.485 538.216 389.222C538.216 390.959 537.526 392.625 536.298 393.853C535.07 395.081 533.404 395.771 531.666 395.771Z" fill="#CCCCCC"/>
<path d="M371.827 502.192C383.131 502.192 392.295 493.029 392.295 481.726C392.295 470.423 383.131 461.261 371.827 461.261C360.522 461.261 351.358 470.423 351.358 481.726C351.358 493.029 360.522 502.192 371.827 502.192Z" fill="#CCCCCC"/>
<path d="M574.24 502.192H417.044C415.307 502.192 413.641 501.502 412.413 500.274C411.184 499.046 410.494 497.38 410.494 495.643C410.494 493.906 411.184 492.241 412.413 491.012C413.641 489.784 415.307 489.094 417.044 489.094H574.24C575.978 489.094 577.644 489.784 578.872 491.012C580.1 492.241 580.79 493.906 580.79 495.643C580.79 497.38 580.1 499.046 578.872 500.274C577.644 501.502 575.978 502.192 574.24 502.192Z" fill="#CCCCCC"/>
<path d="M531.666 474.359H417.044C415.307 474.359 413.641 473.669 412.413 472.441C411.184 471.212 410.494 469.547 410.494 467.81C410.494 466.073 411.184 464.407 412.413 463.179C413.641 461.951 415.307 461.261 417.044 461.261H531.666C533.404 461.261 535.07 461.951 536.298 463.179C537.526 464.407 538.216 466.073 538.216 467.81C538.216 469.547 537.526 471.212 536.298 472.441C535.07 473.669 533.404 474.359 531.666 474.359Z" fill="#CCCCCC"/>
<path d="M629.002 539.03H303.146C299.456 539.026 295.919 537.559 293.309 534.95C290.7 532.341 289.232 528.803 289.228 525.114V281.983C289.232 278.293 290.7 274.756 293.309 272.147C295.919 269.538 299.456 268.07 303.146 268.066H629.002C632.692 268.07 636.23 269.538 638.839 272.147C641.448 274.756 642.916 278.293 642.92 281.983V525.114C642.916 528.803 641.448 532.341 638.839 534.95C636.23 537.559 632.692 539.026 629.002 539.03ZM303.146 269.703C299.891 269.707 296.769 271.002 294.467 273.304C292.164 275.606 290.869 278.727 290.865 281.983V525.114C290.869 528.369 292.164 531.49 294.467 533.792C296.769 536.094 299.891 537.389 303.146 537.393H629.002C632.258 537.389 635.379 536.094 637.682 533.792C639.984 531.49 641.279 528.369 641.283 525.114V281.983C641.279 278.727 639.984 275.606 637.682 273.304C635.379 271.002 632.258 269.707 629.002 269.703H303.146Z" fill="#3F3D56"/>
<path d="M294.959 318.002C320.281 318.002 340.808 297.478 340.808 272.159C340.808 246.841 320.281 226.316 294.959 226.316C269.638 226.316 249.11 246.841 249.11 272.159C249.11 297.478 269.638 318.002 294.959 318.002Z" fill="#F2F2F2"/>
<path d="M290.415 289.647C289.383 289.649 288.379 289.316 287.554 288.697L287.502 288.658L276.728 280.41C276.229 280.028 275.81 279.551 275.495 279.007C275.18 278.463 274.976 277.862 274.893 277.239C274.811 276.616 274.852 275.982 275.014 275.375C275.177 274.768 275.457 274.198 275.839 273.7C276.222 273.201 276.698 272.782 277.243 272.467C277.787 272.153 278.388 271.948 279.011 271.866C279.634 271.783 280.267 271.824 280.875 271.986C281.482 272.149 282.052 272.429 282.551 272.811L289.53 278.162L306.022 256.656C306.405 256.157 306.882 255.739 307.426 255.424C307.971 255.11 308.571 254.905 309.195 254.823C309.818 254.741 310.451 254.782 311.058 254.945C311.666 255.107 312.235 255.388 312.734 255.77L312.631 255.909L312.737 255.772C313.743 256.545 314.401 257.686 314.567 258.944C314.734 260.202 314.394 261.475 313.623 262.483L294.223 287.779C293.775 288.362 293.198 288.834 292.537 289.158C291.877 289.482 291.15 289.649 290.415 289.647Z" fill="white"/>
<path d="M294.607 546.265C293.801 546.265 293.005 546.094 292.27 545.763H292.27L205.89 507.017C204.478 506.385 203.205 505.481 202.143 504.357C201.081 503.233 200.251 501.91 199.7 500.465C199.149 499.02 198.889 497.48 198.933 495.935C198.978 494.389 199.326 492.867 199.96 491.456C200.593 490.045 201.498 488.772 202.623 487.711C203.748 486.65 205.071 485.821 206.517 485.271C207.963 484.721 209.503 484.462 211.049 484.508C212.595 484.553 214.117 484.903 215.527 485.537L301.907 524.282C302.594 524.59 303.213 525.03 303.73 525.578C304.247 526.125 304.65 526.769 304.918 527.472C305.186 528.175 305.312 528.924 305.29 529.676C305.269 530.429 305.099 531.169 304.791 531.856L299.845 542.88C299.39 543.888 298.654 544.744 297.725 545.344C296.796 545.945 295.714 546.264 294.607 546.265Z" fill="#F2F2F2"/>
<path d="M312.755 652H0.818732C0.60159 652 0.393342 651.914 0.2398 651.76C0.0862584 651.607 0 651.399 0 651.181C0 650.964 0.0862584 650.756 0.2398 650.603C0.393342 650.449 0.60159 650.363 0.818732 650.363H312.755C312.973 650.363 313.181 650.449 313.334 650.603C313.488 650.756 313.574 650.964 313.574 651.181C313.574 651.399 313.488 651.607 313.334 651.76C313.181 651.914 312.973 652 312.755 652Z" fill="#3F3D56"/>
</g>
<defs>
<clipPath id="clip0">
<rect width="733" height="652" fill="white"/>
</clipPath>
</defs>
</svg>
