<svg width="745" height="428" viewBox="0 0 745 428" fill="none" xmlns="http://www.w3.org/2000/svg">
<g clip-path="url(#clip0)">
<path d="M161.421 379.916C182.819 379.916 200.165 362.572 200.165 341.177C200.165 319.783 182.819 302.439 161.421 302.439C140.023 302.439 122.677 319.783 122.677 341.177C122.677 362.572 140.023 379.916 161.421 379.916Z" fill="#F2F2F2"/>
<path d="M167.721 374.247C189.119 374.247 206.465 356.903 206.465 335.508C206.465 314.113 189.119 296.77 167.721 296.77C146.323 296.77 128.977 314.113 128.977 335.508C128.977 356.903 146.323 374.247 167.721 374.247Z" fill="white"/>
<path d="M678.294 292.645H198.923V293.952H678.294V292.645Z" fill="#3F3D56"/>
<path d="M447.19 12.1965H277.043V8.69012H199.892V12.1965H29.0433C27.5319 12.1965 26.0353 12.4941 24.639 13.0725C23.2426 13.6508 21.9739 14.4984 20.9051 15.567C19.8364 16.6355 18.9886 17.9041 18.4103 19.3003C17.8319 20.6964 17.5342 22.1928 17.5342 23.704V256.654C17.5342 259.706 18.7467 262.633 20.9051 264.791C23.0635 266.949 25.9909 268.162 29.0433 268.162H447.19C450.242 268.162 453.169 266.949 455.328 264.791C457.486 262.633 458.699 259.706 458.699 256.654V23.704C458.699 22.1928 458.401 20.6964 457.823 19.3003C457.244 17.9041 456.397 16.6355 455.328 15.567C454.259 14.4984 452.99 13.6508 451.594 13.0725C450.198 12.4941 448.701 12.1965 447.19 12.1965Z" fill="#BABABA" fill-opacity="0.64"/>
<path d="M443.269 32.5334H32.9644V263.954H443.269V32.5334Z" fill="white"/>
<path d="M237.766 26.222C240.09 26.222 241.974 24.3381 241.974 22.0143C241.974 19.6905 240.09 17.8067 237.766 17.8067C235.442 17.8067 233.558 19.6905 233.558 22.0143C233.558 24.3381 235.442 26.222 237.766 26.222Z" fill="white"/>
<path opacity="0.1" d="M325.929 263.954H32.9648V32.5337L325.929 263.954Z" fill="black"/>
<path d="M97.1648 246.637C118.947 246.637 136.605 228.982 136.605 207.203C136.605 185.424 118.947 167.769 97.1648 167.769C75.3829 167.769 57.7251 185.424 57.7251 207.203C57.7251 228.982 75.3829 246.637 97.1648 246.637Z" fill="#F2F2F2"/>
<path d="M371.828 157.34H333.501V165.348H371.828V157.34Z" fill="#3F3D56"/>
<path d="M418.163 94.9966H287.166V98.4284H418.163V94.9966Z" fill="#3F3D56"/>
<path d="M418.163 105.864H287.166V109.296H418.163V105.864Z" fill="#3F3D56"/>
<path d="M418.163 116.731H287.166V120.163H418.163V116.731Z" fill="#3F3D56"/>
<path d="M418.163 127.598H287.166V131.03H418.163V127.598Z" fill="#3F3D56"/>
<path d="M418.163 138.466H287.166V141.897H418.163V138.466Z" fill="#3F3D56"/>
<path d="M418.164 37.2285H402.146V53.2434H418.164V37.2285Z" fill="#F2F2F2"/>
<path d="M425.6 60.6789H406.15V41.2322H425.6V60.6789ZM406.996 59.8335H424.754V42.0777H406.996V59.8335Z" fill="#3F3D56"/>
<path d="M470.219 259.746H430.176V256.862C430.176 256.787 430.162 256.712 430.133 256.643C430.104 256.573 430.062 256.51 430.009 256.457C429.956 256.404 429.893 256.362 429.823 256.333C429.754 256.305 429.68 256.29 429.604 256.29H415.875C415.8 256.29 415.726 256.305 415.656 256.333C415.587 256.362 415.524 256.404 415.471 256.457C415.418 256.51 415.376 256.573 415.347 256.643C415.318 256.712 415.303 256.787 415.303 256.862V259.746H406.723V256.862C406.723 256.787 406.708 256.712 406.679 256.643C406.65 256.573 406.608 256.51 406.555 256.457C406.502 256.404 406.439 256.362 406.37 256.333C406.3 256.305 406.226 256.29 406.151 256.29H392.422C392.346 256.29 392.272 256.305 392.203 256.333C392.133 256.362 392.07 256.404 392.017 256.457C391.964 256.51 391.922 256.573 391.893 256.643C391.864 256.712 391.85 256.787 391.85 256.862V259.746H383.269V256.862C383.269 256.787 383.254 256.712 383.225 256.643C383.197 256.573 383.154 256.51 383.101 256.457C383.048 256.404 382.985 256.362 382.916 256.333C382.846 256.305 382.772 256.29 382.697 256.29H368.968C368.893 256.29 368.818 256.305 368.749 256.333C368.68 256.362 368.616 256.404 368.563 256.457C368.51 256.51 368.468 256.573 368.439 256.643C368.411 256.712 368.396 256.787 368.396 256.862V259.746H359.815V256.862C359.815 256.787 359.8 256.712 359.772 256.643C359.743 256.573 359.701 256.51 359.648 256.457C359.594 256.404 359.531 256.362 359.462 256.333C359.393 256.305 359.318 256.29 359.243 256.29H345.514C345.439 256.29 345.365 256.305 345.295 256.333C345.226 256.362 345.163 256.404 345.11 256.457C345.056 256.51 345.014 256.573 344.986 256.643C344.957 256.712 344.942 256.787 344.942 256.862V259.746H336.361V256.862C336.361 256.787 336.347 256.712 336.318 256.643C336.289 256.573 336.247 256.51 336.194 256.457C336.141 256.404 336.078 256.362 336.008 256.333C335.939 256.305 335.864 256.29 335.789 256.29H322.06C321.985 256.29 321.911 256.305 321.841 256.333C321.772 256.362 321.709 256.404 321.656 256.457C321.603 256.51 321.561 256.573 321.532 256.643C321.503 256.712 321.488 256.787 321.488 256.862V259.746H312.908V256.862C312.908 256.787 312.893 256.712 312.864 256.643C312.835 256.573 312.793 256.51 312.74 256.457C312.687 256.404 312.624 256.362 312.554 256.333C312.485 256.305 312.411 256.29 312.336 256.29H298.607C298.531 256.29 298.457 256.305 298.388 256.333C298.318 256.362 298.255 256.404 298.202 256.457C298.149 256.51 298.107 256.573 298.078 256.643C298.049 256.712 298.034 256.787 298.034 256.862V259.746H289.454V256.862C289.454 256.787 289.439 256.712 289.41 256.643C289.382 256.573 289.339 256.51 289.286 256.457C289.233 256.404 289.17 256.362 289.101 256.333C289.031 256.305 288.957 256.29 288.882 256.29H181.338C181.263 256.29 181.188 256.305 181.119 256.333C181.049 256.362 180.986 256.404 180.933 256.457C180.88 256.51 180.838 256.573 180.809 256.643C180.78 256.712 180.766 256.787 180.766 256.862V259.746H172.185V256.862C172.185 256.787 172.17 256.712 172.141 256.643C172.113 256.573 172.071 256.51 172.017 256.457C171.964 256.404 171.901 256.362 171.832 256.333C171.762 256.305 171.688 256.29 171.613 256.29H157.884C157.809 256.29 157.734 256.305 157.665 256.333C157.596 256.362 157.533 256.404 157.479 256.457C157.426 256.51 157.384 256.573 157.355 256.643C157.327 256.712 157.312 256.787 157.312 256.862V259.746H148.731V256.862C148.731 256.787 148.716 256.712 148.688 256.643C148.659 256.573 148.617 256.51 148.564 256.457C148.511 256.404 148.447 256.362 148.378 256.333C148.309 256.305 148.234 256.29 148.159 256.29H134.43C134.355 256.29 134.281 256.305 134.211 256.333C134.142 256.362 134.079 256.404 134.026 256.457C133.973 256.51 133.93 256.573 133.902 256.643C133.873 256.712 133.858 256.787 133.858 256.862V259.746H125.277V256.862C125.277 256.787 125.263 256.712 125.234 256.643C125.205 256.573 125.163 256.51 125.11 256.457C125.057 256.404 124.994 256.362 124.924 256.333C124.855 256.305 124.781 256.29 124.705 256.29H110.976C110.901 256.29 110.827 256.305 110.757 256.333C110.688 256.362 110.625 256.404 110.572 256.457C110.519 256.51 110.477 256.573 110.448 256.643C110.419 256.712 110.404 256.787 110.404 256.862V259.746H101.824V256.862C101.824 256.787 101.809 256.712 101.78 256.643C101.751 256.573 101.709 256.51 101.656 256.457C101.603 256.404 101.54 256.362 101.471 256.333C101.401 256.305 101.327 256.29 101.252 256.29H87.5226C87.4475 256.29 87.3731 256.305 87.3037 256.333C87.2343 256.362 87.1712 256.404 87.1181 256.457C87.065 256.51 87.0228 256.573 86.9941 256.643C86.9653 256.712 86.9505 256.787 86.9506 256.862V259.746H78.3699V256.862C78.3699 256.787 78.3551 256.712 78.3264 256.643C78.2976 256.573 78.2555 256.51 78.2024 256.457C78.1492 256.404 78.0862 256.362 78.0168 256.333C77.9474 256.305 77.873 256.29 77.7979 256.29H64.0688C63.9937 256.29 63.9193 256.305 63.8499 256.333C63.7805 256.362 63.7174 256.404 63.6643 256.457C63.6112 256.51 63.5691 256.573 63.5403 256.643C63.5116 256.712 63.4968 256.787 63.4968 256.862V259.746H54.9161V256.862C54.9161 256.787 54.9013 256.712 54.8726 256.643C54.8439 256.573 54.8017 256.51 54.7486 256.457C54.6955 256.404 54.6324 256.362 54.563 256.333C54.4936 256.305 54.4192 256.29 54.3441 256.29H40.6151C40.5399 256.29 40.4656 256.305 40.3961 256.333C40.3267 256.362 40.2637 256.404 40.2106 256.457C40.1574 256.51 40.1153 256.573 40.0866 256.643C40.0578 256.712 40.043 256.787 40.043 256.862V259.746H13.729C10.0879 259.746 6.59584 261.193 4.02115 263.767C1.44645 266.341 3.46894e-06 269.833 0 273.473V279.681C1.04068e-05 283.321 1.44646 286.813 4.02116 289.387C6.59585 291.961 10.0879 293.408 13.729 293.408H470.219C473.861 293.408 477.353 291.961 479.927 289.387C482.502 286.813 483.948 283.321 483.948 279.681V273.473C483.948 269.833 482.502 266.341 479.927 263.767C477.353 261.193 473.861 259.746 470.219 259.746Z" fill="#CFCFCF" fill-opacity="0.92"/>
<path d="M106.712 231.833C96.8813 231.833 87.2718 228.918 79.0982 223.457C70.9246 217.997 64.5541 210.235 60.7922 201.155C57.0303 192.074 56.046 182.082 57.9638 172.442C59.8816 162.802 64.6154 153.947 71.5664 146.997C78.5175 140.047 87.3737 135.314 97.0151 133.396C106.656 131.479 116.65 132.463 125.732 136.224C134.814 139.985 142.577 146.355 148.038 154.528C153.499 162.7 156.414 172.308 156.414 182.137C156.4 195.313 151.158 207.944 141.84 217.261C132.522 226.577 119.889 231.818 106.712 231.833ZM106.712 133.749C97.14 133.749 87.7834 136.587 79.8249 141.904C71.8664 147.221 65.6635 154.778 62.0006 163.62C58.3377 172.461 57.3793 182.191 59.2467 191.577C61.114 200.963 65.7232 209.585 72.4913 216.352C79.2594 223.12 87.8826 227.728 97.2703 229.595C106.658 231.462 116.389 230.504 125.232 226.842C134.075 223.179 141.633 216.977 146.95 209.02C152.268 201.063 155.106 191.707 155.106 182.137C155.092 169.308 149.989 157.009 140.916 147.938C131.843 138.866 119.542 133.764 106.712 133.749Z" fill="#3F3D56"/>
<path d="M550.112 21.2797H383.347V22.5875H550.112V21.2797Z" fill="#3F3D56"/>
<path d="M745 366.534H265.63V367.842H745V366.534Z" fill="#3F3D56"/>
<path d="M292.77 426.692H126.004V428H292.77V426.692Z" fill="#3F3D56"/>
<path d="M326.338 359.64H308.026V377.949H326.338V359.64Z" fill="white"/>
<path d="M337.456 367.487H315.221V345.255H337.456V367.487ZM316.187 366.52H336.489V346.221H316.187V366.52Z" fill="#3F3D56"/>
<path d="M538.883 14.3856H520.572V32.6946H538.883V14.3856Z" fill="white"/>
<path d="M550.001 22.2323H527.766V0H550.001V22.2323ZM528.732 21.2657H549.034V0.966624H528.732V21.2657Z" fill="#3F3D56"/>
<path d="M723.307 359.64H704.995V377.949H723.307V359.64Z" fill="white"/>
<path d="M734.424 367.487H712.189V345.255H734.424V367.487ZM713.156 366.52H733.458V346.221H713.156V366.52Z" fill="#3F3D56"/>
<path d="M691.374 151.675H689.818V109.067C689.818 105.828 689.18 102.622 687.941 99.6296C686.701 96.6376 684.884 93.919 682.594 91.6291C680.304 89.3391 677.585 87.5226 674.592 86.2833C671.6 85.044 668.393 84.4061 665.154 84.4061H574.869C571.63 84.4061 568.423 85.044 565.43 86.2833C562.438 87.5226 559.719 89.3391 557.429 91.6291C555.138 93.919 553.322 96.6376 552.082 99.6296C550.843 102.622 550.205 105.828 550.205 109.067V342.821C550.205 346.059 550.843 349.266 552.082 352.258C553.322 355.25 555.138 357.969 557.429 360.259C559.719 362.548 562.438 364.365 565.43 365.604C568.423 366.844 571.63 367.481 574.869 367.481H665.154C668.393 367.481 671.6 366.844 674.592 365.604C677.585 364.365 680.304 362.548 682.594 360.258C684.884 357.969 686.701 355.25 687.941 352.258C689.18 349.266 689.818 346.059 689.818 342.821V182.005H691.374V151.675Z" fill="#C6C6C6" fill-opacity="0.59"/>
<path d="M684.566 110.516V343.929C684.567 348.814 682.627 353.498 679.173 356.953C675.719 360.407 671.035 362.348 666.15 362.349H575.429C570.544 362.348 565.859 360.407 562.405 356.953C558.952 353.498 557.012 348.814 557.013 343.929V110.516C557.013 105.633 558.954 100.95 562.407 97.4964C565.861 94.0433 570.545 92.1032 575.429 92.1027H586.435C585.894 93.4311 585.687 94.8724 585.834 96.2995C585.98 97.7266 586.476 99.0957 587.276 100.286C588.077 101.477 589.158 102.452 590.424 103.127C591.691 103.801 593.104 104.154 594.538 104.154H646.262C647.697 104.154 649.11 103.801 650.376 103.127C651.642 102.452 652.723 101.477 653.524 100.286C654.325 99.0957 654.82 97.7266 654.966 96.2995C655.113 94.8724 654.907 93.4311 654.365 92.1027H666.15C671.034 92.1032 675.718 94.0433 679.171 97.4964C682.625 100.95 684.565 105.633 684.566 110.516Z" fill="white"/>
<path d="M634.302 246.005H607.276V254.013H634.302V246.005Z" fill="#3F3D56"/>
<path d="M666.973 183.662H574.604V187.093H666.973V183.662Z" fill="#3F3D56"/>
<path d="M666.973 194.529H574.604V197.961H666.973V194.529Z" fill="#3F3D56"/>
<path d="M666.973 205.396H574.604V208.828H666.973V205.396Z" fill="#3F3D56"/>
<path d="M666.973 216.263H574.604V219.695H666.973V216.263Z" fill="#3F3D56"/>
<path d="M666.973 227.131H574.604V230.562H666.973V227.131Z" fill="#3F3D56"/>
<path d="M624.016 138.088H607.999V154.103H624.016V138.088Z" fill="#F2F2F2"/>
<path d="M614.13 142.093V161.539H633.579V142.093H614.13ZM632.736 160.696H614.974V142.936H632.736V160.696Z" fill="#3F3D56"/>
<path opacity="0.1" d="M684.566 319.003V343.929C684.567 348.814 682.627 353.498 679.173 356.953C675.719 360.407 671.035 362.348 666.15 362.349H575.429C570.544 362.348 565.859 360.407 562.405 356.953C558.952 353.498 557.012 348.814 557.013 343.929V218.245L633.444 278.619L634.752 279.652L648.969 290.879L650.297 291.932L684.566 319.003Z" fill="black"/>
<path d="M612.941 354.785C628.786 354.785 641.63 341.942 641.63 326.1C641.63 310.258 628.786 297.415 612.941 297.415C597.097 297.415 584.252 310.258 584.252 326.1C584.252 341.942 597.097 354.785 612.941 354.785Z" fill="#F2F2F2"/>
<path d="M209.387 428C198.134 428 187.133 424.664 177.777 418.413C168.42 412.162 161.128 403.277 156.821 392.882C152.515 382.487 151.388 371.048 153.584 360.013C155.779 348.978 161.198 338.841 169.155 330.885C177.112 322.929 187.25 317.511 198.287 315.316C209.324 313.121 220.764 314.248 231.16 318.553C241.557 322.859 250.443 330.151 256.695 339.506C262.947 348.861 266.284 359.86 266.284 371.111C266.267 386.194 260.267 400.654 249.6 411.319C238.934 421.984 224.472 427.983 209.387 428ZM209.387 315.531C198.393 315.531 187.645 318.791 178.504 324.898C169.362 331.005 162.237 339.686 158.03 349.842C153.822 359.998 152.721 371.173 154.866 381.955C157.011 392.736 162.306 402.64 170.08 410.413C177.854 418.186 187.759 423.48 198.542 425.624C209.325 427.769 220.502 426.668 230.66 422.461C240.817 418.255 249.499 411.131 255.607 401.991C261.715 392.85 264.976 382.104 264.976 371.111C264.959 356.376 259.097 342.248 248.676 331.828C238.254 321.409 224.125 315.547 209.387 315.531Z" fill="#3F3D56"/>
<path d="M621.397 348.225C614.283 348.225 607.329 346.116 601.414 342.164C595.499 338.212 590.889 332.596 588.166 326.024C585.444 319.453 584.731 312.221 586.119 305.245C587.507 298.269 590.933 291.861 595.963 286.831C600.994 281.801 607.403 278.376 614.38 276.988C621.357 275.601 628.59 276.313 635.162 279.035C641.735 281.757 647.352 286.367 651.305 292.281C655.257 298.195 657.367 305.148 657.367 312.261C657.356 321.796 653.563 330.938 646.819 337.68C640.076 344.422 630.934 348.215 621.397 348.225ZM621.397 277.605C614.542 277.605 607.841 279.638 602.141 283.446C596.441 287.254 591.998 292.666 589.375 298.999C586.751 305.332 586.065 312.3 587.402 319.022C588.74 325.745 592.041 331.92 596.888 336.767C601.736 341.614 607.912 344.914 614.635 346.252C621.359 347.589 628.328 346.903 634.662 344.279C640.995 341.656 646.408 337.214 650.217 331.515C654.026 325.816 656.059 319.116 656.059 312.261C656.048 303.073 652.393 294.264 645.895 287.767C639.397 281.27 630.587 277.615 621.397 277.605Z" fill="#3F3D56"/>
</g>
<defs>
<clipPath id="clip0">
<rect width="745" height="428" fill="white"/>
</clipPath>
</defs>
</svg>
